<?xml version="1.0" encoding="UTF-8" standalone="no"?>
<!DOCTYPE svg PUBLIC "-//W3C//DTD SVG 1.1//EN" "http://www.w3.org/Graphics/SVG/1.1/DTD/svg11.dtd">
<svg width="100%" height="100%" viewBox="0 0 1920 1080" version="1.1" xmlns="http://www.w3.org/2000/svg" xmlns:xlink="http://www.w3.org/1999/xlink" xml:space="preserve" xmlns:serif="http://www.serif.com/" style="fill-rule:evenodd;clip-rule:evenodd;stroke-linejoin:round;stroke-miterlimit:2;">
    <rect id="Artboard1" x="0" y="0" width="1920" height="1080" style="fill:none;"/>
    <g id="Artboard11" serif:id="Artboard1">
        <g>
            <g transform="matrix(1,0,0,1,0,-16.4674)">
                <g transform="matrix(27.0637,0,0,27.0637,-8202.33,-7969.5)">
                    <g transform="matrix(12,0,0,12,305.464,330.778)">
                        <path d="M0.594,-0.498L0.662,-0.498C0.657,-0.535 0.646,-0.568 0.629,-0.597C0.611,-0.626 0.589,-0.65 0.563,-0.67C0.536,-0.689 0.507,-0.704 0.475,-0.714C0.442,-0.724 0.409,-0.729 0.375,-0.729C0.319,-0.729 0.27,-0.719 0.228,-0.699C0.185,-0.678 0.15,-0.651 0.122,-0.617C0.094,-0.582 0.073,-0.543 0.059,-0.498C0.045,-0.453 0.038,-0.406 0.038,-0.357C0.038,-0.308 0.045,-0.261 0.059,-0.216C0.073,-0.171 0.094,-0.132 0.122,-0.098C0.15,-0.064 0.185,-0.037 0.228,-0.017C0.27,0.004 0.319,0.014 0.375,0.014C0.417,0.014 0.455,0.007 0.49,-0.006C0.524,-0.019 0.554,-0.038 0.579,-0.063C0.604,-0.088 0.625,-0.118 0.641,-0.153C0.657,-0.188 0.667,-0.228 0.672,-0.272L0.604,-0.272C0.601,-0.24 0.593,-0.21 0.581,-0.183C0.569,-0.155 0.553,-0.131 0.534,-0.11C0.515,-0.089 0.492,-0.073 0.465,-0.061C0.438,-0.049 0.408,-0.043 0.375,-0.043C0.328,-0.043 0.287,-0.052 0.253,-0.07C0.219,-0.088 0.191,-0.112 0.17,-0.142C0.148,-0.171 0.132,-0.205 0.122,-0.243C0.111,-0.28 0.106,-0.318 0.106,-0.357C0.106,-0.396 0.111,-0.435 0.122,-0.472C0.132,-0.509 0.148,-0.543 0.17,-0.573C0.191,-0.602 0.219,-0.626 0.253,-0.644C0.287,-0.662 0.328,-0.671 0.375,-0.671C0.401,-0.671 0.426,-0.667 0.45,-0.66C0.473,-0.652 0.495,-0.641 0.515,-0.626C0.534,-0.611 0.551,-0.593 0.565,-0.572C0.578,-0.55 0.588,-0.525 0.594,-0.498Z" style="fill-rule:nonzero;"/>
                    </g>
                    <g transform="matrix(12,0,0,12,313.912,330.778)">
                        <path d="M0.278,-0.478C0.308,-0.478 0.334,-0.472 0.357,-0.459C0.38,-0.446 0.399,-0.43 0.414,-0.409C0.429,-0.388 0.44,-0.365 0.448,-0.339C0.455,-0.312 0.459,-0.285 0.459,-0.258C0.459,-0.231 0.455,-0.204 0.448,-0.178C0.44,-0.151 0.429,-0.128 0.414,-0.107C0.399,-0.086 0.38,-0.07 0.357,-0.057C0.334,-0.044 0.308,-0.038 0.278,-0.038C0.248,-0.038 0.222,-0.044 0.199,-0.057C0.176,-0.07 0.158,-0.086 0.143,-0.107C0.128,-0.128 0.116,-0.151 0.109,-0.178C0.101,-0.204 0.097,-0.231 0.097,-0.258C0.097,-0.285 0.101,-0.312 0.109,-0.339C0.116,-0.365 0.128,-0.388 0.143,-0.409C0.158,-0.43 0.176,-0.446 0.199,-0.459C0.222,-0.472 0.248,-0.478 0.278,-0.478ZM0.278,-0.531C0.239,-0.531 0.204,-0.524 0.174,-0.509C0.143,-0.494 0.118,-0.475 0.097,-0.45C0.076,-0.425 0.061,-0.397 0.05,-0.364C0.039,-0.331 0.034,-0.295 0.034,-0.258C0.034,-0.221 0.039,-0.186 0.05,-0.153C0.061,-0.12 0.076,-0.091 0.097,-0.066C0.118,-0.041 0.143,-0.022 0.174,-0.008C0.204,0.007 0.239,0.014 0.278,0.014C0.317,0.014 0.352,0.007 0.383,-0.008C0.413,-0.022 0.438,-0.041 0.459,-0.066C0.48,-0.091 0.495,-0.12 0.506,-0.153C0.517,-0.186 0.522,-0.221 0.522,-0.258C0.522,-0.295 0.517,-0.331 0.506,-0.364C0.495,-0.397 0.48,-0.425 0.459,-0.45C0.438,-0.475 0.413,-0.494 0.383,-0.509C0.352,-0.524 0.317,-0.531 0.278,-0.531Z" style="fill-rule:nonzero;"/>
                    </g>
                    <g transform="matrix(12,0,0,12,320.584,330.778)">
                        <path d="M0.514,0L0.514,-0.714L0.451,-0.714L0.451,-0.418L0.449,-0.418C0.442,-0.437 0.433,-0.453 0.421,-0.467C0.408,-0.481 0.394,-0.493 0.378,-0.503C0.362,-0.512 0.345,-0.519 0.327,-0.524C0.308,-0.529 0.289,-0.531 0.27,-0.531C0.231,-0.531 0.197,-0.524 0.168,-0.509C0.138,-0.494 0.114,-0.474 0.095,-0.45C0.076,-0.425 0.061,-0.396 0.052,-0.363C0.043,-0.329 0.038,-0.295 0.038,-0.258C0.038,-0.221 0.043,-0.187 0.052,-0.154C0.061,-0.121 0.076,-0.092 0.095,-0.067C0.114,-0.042 0.138,-0.022 0.168,-0.008C0.197,0.007 0.231,0.014 0.27,0.014C0.289,0.014 0.308,0.011 0.327,0.006C0.345,0.001 0.363,-0.007 0.38,-0.017C0.397,-0.026 0.412,-0.038 0.425,-0.052C0.438,-0.066 0.447,-0.081 0.454,-0.098L0.456,-0.098L0.456,0L0.514,0ZM0.101,-0.258C0.101,-0.285 0.104,-0.311 0.111,-0.338C0.117,-0.364 0.127,-0.387 0.141,-0.408C0.154,-0.429 0.172,-0.446 0.193,-0.459C0.214,-0.472 0.24,-0.478 0.27,-0.478C0.303,-0.478 0.331,-0.472 0.355,-0.459C0.378,-0.446 0.396,-0.429 0.411,-0.408C0.425,-0.387 0.435,-0.364 0.442,-0.338C0.448,-0.311 0.451,-0.285 0.451,-0.258C0.451,-0.231 0.448,-0.205 0.442,-0.179C0.435,-0.152 0.425,-0.129 0.411,-0.108C0.396,-0.087 0.378,-0.07 0.355,-0.058C0.331,-0.045 0.303,-0.038 0.27,-0.038C0.24,-0.038 0.214,-0.045 0.193,-0.058C0.172,-0.07 0.154,-0.087 0.141,-0.108C0.127,-0.129 0.117,-0.152 0.111,-0.179C0.104,-0.205 0.101,-0.231 0.101,-0.258Z" style="fill-rule:nonzero;"/>
                    </g>
                    <g transform="matrix(12,0,0,12,327.472,330.778)">
                        <path d="M0.431,-0.294L0.097,-0.294C0.1,-0.317 0.105,-0.34 0.114,-0.363C0.122,-0.385 0.133,-0.405 0.147,-0.422C0.161,-0.439 0.178,-0.452 0.198,-0.463C0.218,-0.473 0.241,-0.478 0.267,-0.478C0.292,-0.478 0.315,-0.473 0.335,-0.463C0.355,-0.452 0.372,-0.439 0.386,-0.422C0.4,-0.405 0.411,-0.385 0.419,-0.363C0.426,-0.341 0.43,-0.318 0.431,-0.294ZM0.097,-0.241L0.494,-0.241C0.495,-0.277 0.492,-0.313 0.484,-0.348C0.476,-0.383 0.463,-0.413 0.445,-0.441C0.426,-0.467 0.402,-0.489 0.373,-0.506C0.344,-0.523 0.308,-0.531 0.267,-0.531C0.226,-0.531 0.191,-0.523 0.162,-0.508C0.132,-0.492 0.108,-0.471 0.089,-0.446C0.07,-0.42 0.056,-0.391 0.048,-0.358C0.039,-0.325 0.034,-0.292 0.034,-0.258C0.034,-0.221 0.039,-0.187 0.048,-0.154C0.056,-0.121 0.07,-0.092 0.089,-0.067C0.108,-0.042 0.132,-0.022 0.162,-0.008C0.191,0.007 0.226,0.014 0.267,0.014C0.332,0.014 0.383,-0.002 0.419,-0.034C0.454,-0.066 0.479,-0.111 0.492,-0.17L0.429,-0.17C0.419,-0.13 0.401,-0.098 0.375,-0.074C0.349,-0.05 0.313,-0.038 0.267,-0.038C0.237,-0.038 0.211,-0.044 0.19,-0.057C0.169,-0.07 0.151,-0.086 0.137,-0.105C0.123,-0.124 0.113,-0.146 0.107,-0.171C0.1,-0.195 0.097,-0.218 0.097,-0.241Z" style="fill-rule:nonzero;"/>
                    </g>
                </g>
                <g transform="matrix(0.0909877,0,0,0.0909877,1395.23,859.399)">
                    <g transform="matrix(361.725,0,0,361.725,955.241,867.203)">
                        <path d="M0.083,0L0.083,-0.513L0.142,-0.513L0.142,-0.429L0.143,-0.429C0.152,-0.454 0.169,-0.477 0.195,-0.499C0.221,-0.52 0.254,-0.53 0.294,-0.53C0.362,-0.53 0.407,-0.49 0.429,-0.408C0.431,-0.417 0.436,-0.427 0.443,-0.438C0.45,-0.45 0.46,-0.463 0.473,-0.478C0.486,-0.493 0.503,-0.505 0.526,-0.515C0.548,-0.525 0.573,-0.53 0.6,-0.53C0.651,-0.53 0.688,-0.513 0.711,-0.479C0.734,-0.446 0.745,-0.396 0.745,-0.332L0.745,0L0.686,0L0.686,-0.326C0.686,-0.377 0.679,-0.415 0.665,-0.441C0.651,-0.467 0.624,-0.48 0.585,-0.48C0.546,-0.48 0.513,-0.464 0.485,-0.432C0.458,-0.399 0.444,-0.357 0.444,-0.307L0.444,0L0.385,0L0.385,-0.326C0.385,-0.429 0.351,-0.48 0.282,-0.48C0.241,-0.48 0.207,-0.465 0.182,-0.433C0.156,-0.402 0.144,-0.361 0.144,-0.312L0.144,0L0.083,0Z" style="fill-rule:nonzero;"/>
                    </g>
                    <g transform="matrix(361.725,0,0,361.725,1252.67,867.203)">
                        <path d="M0.078,-0.179L0.078,-0.513L0.138,-0.513L0.138,-0.193C0.138,-0.086 0.178,-0.032 0.259,-0.032C0.308,-0.032 0.345,-0.051 0.371,-0.088C0.397,-0.125 0.41,-0.169 0.41,-0.22L0.41,-0.513L0.469,-0.513L0.469,0L0.411,0L0.411,-0.092C0.409,-0.082 0.405,-0.071 0.397,-0.06C0.39,-0.049 0.38,-0.037 0.368,-0.024C0.355,-0.012 0.338,-0.002 0.316,0.006C0.295,0.014 0.271,0.018 0.244,0.018C0.193,0.018 0.153,0 0.123,-0.034C0.093,-0.068 0.078,-0.116 0.078,-0.179Z" style="fill-rule:nonzero;"/>
                    </g>
                    <g transform="matrix(361.725,0,0,361.725,1452.26,867.203)">
                        <rect x="0.094" y="-0.746" width="0.059" height="0.746" style="fill-rule:nonzero;"/>
                    </g>
                    <g transform="matrix(361.725,0,0,361.725,1541.28,867.203)">
                        <path d="M0.022,-0.463L0.022,-0.513L0.116,-0.513L0.116,-0.682L0.177,-0.682L0.177,-0.513L0.313,-0.513L0.313,-0.463L0.177,-0.463L0.177,-0.146C0.177,-0.112 0.183,-0.087 0.196,-0.072C0.209,-0.057 0.23,-0.05 0.26,-0.051L0.313,-0.052L0.313,0L0.252,0C0.208,0.001 0.175,-0.01 0.151,-0.033C0.128,-0.056 0.116,-0.091 0.116,-0.14L0.116,-0.463L0.022,-0.463Z" style="fill-rule:nonzero;"/>
                    </g>
                    <g transform="matrix(361.725,0,0,361.725,1667.39,867.203)">
                        <path d="M0.091,-0.639L0.091,-0.729L0.176,-0.729L0.176,-0.639L0.091,-0.639ZM0.104,0L0.104,-0.513L0.164,-0.513L0.164,0L0.104,0Z" style="fill-rule:nonzero;"/>
                    </g>
                    <g transform="matrix(361.725,0,0,361.725,1763.82,867.203)">
                        <path d="M0.047,-0.258C0.047,-0.342 0.067,-0.409 0.107,-0.458C0.147,-0.506 0.198,-0.53 0.261,-0.53C0.3,-0.53 0.335,-0.518 0.364,-0.494C0.393,-0.47 0.413,-0.442 0.425,-0.409L0.425,-0.746L0.483,-0.746L0.483,0L0.427,0L0.427,-0.103C0.414,-0.068 0.393,-0.039 0.364,-0.017C0.335,0.006 0.3,0.018 0.261,0.018C0.204,0.018 0.154,-0.006 0.111,-0.052C0.068,-0.098 0.047,-0.167 0.047,-0.258ZM0.107,-0.258C0.107,-0.189 0.122,-0.135 0.152,-0.094C0.181,-0.053 0.22,-0.032 0.269,-0.032C0.313,-0.032 0.35,-0.052 0.381,-0.093C0.411,-0.133 0.427,-0.188 0.427,-0.258C0.427,-0.326 0.411,-0.38 0.38,-0.42C0.349,-0.46 0.311,-0.48 0.268,-0.48C0.22,-0.48 0.181,-0.46 0.152,-0.42C0.122,-0.38 0.107,-0.326 0.107,-0.258Z" style="fill-rule:nonzero;"/>
                    </g>
                    <g transform="matrix(361.725,0,0,361.725,1970.47,867.203)">
                        <path d="M0.091,-0.639L0.091,-0.729L0.176,-0.729L0.176,-0.639L0.091,-0.639ZM0.104,0L0.104,-0.513L0.164,-0.513L0.164,0L0.104,0Z" style="fill-rule:nonzero;"/>
                    </g>
                    <g transform="matrix(361.725,0,0,361.725,2066.91,867.203)">
                        <path d="M0.039,-0.096L0.085,-0.122C0.123,-0.062 0.176,-0.032 0.242,-0.032C0.283,-0.032 0.316,-0.04 0.342,-0.057C0.367,-0.073 0.38,-0.095 0.38,-0.124C0.38,-0.137 0.377,-0.149 0.371,-0.159C0.364,-0.169 0.358,-0.177 0.351,-0.184C0.343,-0.191 0.331,-0.198 0.313,-0.206C0.295,-0.213 0.281,-0.219 0.27,-0.222C0.259,-0.226 0.241,-0.231 0.215,-0.239C0.192,-0.246 0.173,-0.253 0.157,-0.26C0.141,-0.267 0.124,-0.276 0.107,-0.288C0.09,-0.3 0.076,-0.314 0.067,-0.331C0.058,-0.348 0.054,-0.368 0.054,-0.39C0.054,-0.432 0.071,-0.466 0.105,-0.492C0.139,-0.517 0.185,-0.53 0.242,-0.53C0.283,-0.53 0.321,-0.52 0.354,-0.499C0.388,-0.477 0.413,-0.452 0.428,-0.423L0.387,-0.396C0.373,-0.42 0.353,-0.44 0.328,-0.456C0.302,-0.472 0.273,-0.48 0.242,-0.48C0.201,-0.48 0.169,-0.472 0.147,-0.456C0.125,-0.439 0.113,-0.417 0.113,-0.389C0.113,-0.368 0.121,-0.35 0.137,-0.334C0.152,-0.318 0.169,-0.307 0.187,-0.299C0.205,-0.292 0.228,-0.284 0.257,-0.275C0.282,-0.268 0.304,-0.261 0.321,-0.254C0.339,-0.248 0.358,-0.238 0.378,-0.226C0.398,-0.214 0.414,-0.199 0.424,-0.182C0.435,-0.165 0.44,-0.146 0.44,-0.124C0.44,-0.084 0.423,-0.05 0.388,-0.023C0.353,0.004 0.305,0.018 0.242,0.018C0.198,0.018 0.158,0.008 0.123,-0.012C0.088,-0.032 0.06,-0.06 0.039,-0.096Z" style="fill-rule:nonzero;"/>
                    </g>
                    <g transform="matrix(361.725,0,0,361.725,2240,867.203)">
                        <path d="M0.047,-0.257C0.047,-0.338 0.067,-0.403 0.107,-0.454C0.148,-0.505 0.203,-0.53 0.272,-0.53C0.317,-0.53 0.355,-0.518 0.387,-0.493C0.419,-0.468 0.44,-0.438 0.452,-0.403L0.4,-0.389C0.39,-0.415 0.373,-0.437 0.351,-0.454C0.328,-0.472 0.302,-0.48 0.272,-0.48C0.222,-0.48 0.182,-0.459 0.152,-0.417C0.122,-0.375 0.107,-0.321 0.107,-0.257C0.107,-0.188 0.123,-0.134 0.154,-0.093C0.185,-0.053 0.224,-0.032 0.272,-0.032C0.304,-0.032 0.332,-0.042 0.358,-0.062C0.384,-0.081 0.403,-0.104 0.415,-0.131L0.466,-0.114C0.451,-0.078 0.427,-0.047 0.393,-0.021C0.358,0.005 0.318,0.018 0.272,0.018C0.205,0.018 0.151,-0.007 0.109,-0.057C0.068,-0.107 0.047,-0.174 0.047,-0.257Z" style="fill-rule:nonzero;"/>
                    </g>
                    <g transform="matrix(361.725,0,0,361.725,2417.68,867.203)">
                        <path d="M0.091,-0.639L0.091,-0.729L0.176,-0.729L0.176,-0.639L0.091,-0.639ZM0.104,0L0.104,-0.513L0.164,-0.513L0.164,0L0.104,0Z" style="fill-rule:nonzero;"/>
                    </g>
                    <g transform="matrix(361.725,0,0,361.725,2514.12,867.203)">
                        <path d="M0.147,-0.258C0.147,-0.19 0.162,-0.136 0.19,-0.094C0.218,-0.053 0.257,-0.032 0.305,-0.032C0.351,-0.032 0.389,-0.052 0.42,-0.093C0.451,-0.133 0.466,-0.188 0.466,-0.258C0.466,-0.323 0.451,-0.376 0.423,-0.418C0.394,-0.46 0.355,-0.48 0.305,-0.48C0.259,-0.48 0.222,-0.459 0.192,-0.417C0.162,-0.375 0.147,-0.322 0.147,-0.258ZM0.089,0.229L0.089,-0.513L0.146,-0.513L0.146,-0.408C0.161,-0.445 0.182,-0.475 0.211,-0.497C0.24,-0.519 0.274,-0.53 0.312,-0.53C0.375,-0.53 0.426,-0.506 0.466,-0.456C0.506,-0.407 0.525,-0.34 0.525,-0.258C0.525,-0.17 0.505,-0.102 0.463,-0.054C0.421,-0.006 0.371,0.018 0.312,0.018C0.272,0.018 0.238,0.007 0.21,-0.016C0.182,-0.038 0.161,-0.066 0.147,-0.101L0.147,0.229L0.089,0.229Z" style="fill-rule:nonzero;"/>
                    </g>
                    <g transform="matrix(361.725,0,0,361.725,2720.77,867.203)">
                        <rect x="0.094" y="-0.746" width="0.059" height="0.746" style="fill-rule:nonzero;"/>
                    </g>
                    <g transform="matrix(361.725,0,0,361.725,2809.79,867.203)">
                        <path d="M0.091,-0.639L0.091,-0.729L0.176,-0.729L0.176,-0.639L0.091,-0.639ZM0.104,0L0.104,-0.513L0.164,-0.513L0.164,0L0.104,0Z" style="fill-rule:nonzero;"/>
                    </g>
                    <g transform="matrix(361.725,0,0,361.725,2906.22,867.203)">
                        <path d="M0.083,0L0.083,-0.513L0.142,-0.513L0.142,-0.416L0.143,-0.416C0.15,-0.442 0.169,-0.468 0.201,-0.493C0.232,-0.518 0.27,-0.53 0.314,-0.53C0.361,-0.53 0.399,-0.515 0.431,-0.486C0.462,-0.456 0.478,-0.405 0.478,-0.332L0.478,0L0.417,0L0.417,-0.321C0.417,-0.427 0.378,-0.48 0.301,-0.48C0.259,-0.48 0.222,-0.464 0.191,-0.43C0.159,-0.396 0.144,-0.356 0.144,-0.31L0.144,0L0.083,0Z" style="fill-rule:nonzero;"/>
                    </g>
                    <g transform="matrix(361.725,0,0,361.725,3106.87,867.203)">
                        <path d="M0.104,-0.127C0.104,-0.101 0.116,-0.079 0.138,-0.06C0.16,-0.042 0.19,-0.032 0.229,-0.032C0.278,-0.032 0.32,-0.048 0.355,-0.08C0.39,-0.111 0.407,-0.151 0.407,-0.2L0.407,-0.281C0.378,-0.272 0.329,-0.262 0.261,-0.252C0.206,-0.243 0.166,-0.228 0.142,-0.208C0.117,-0.188 0.104,-0.161 0.104,-0.127ZM0.044,-0.123C0.044,-0.17 0.061,-0.208 0.096,-0.237C0.131,-0.266 0.186,-0.286 0.262,-0.298C0.337,-0.31 0.386,-0.321 0.407,-0.329L0.407,-0.358C0.407,-0.394 0.395,-0.424 0.37,-0.447C0.345,-0.47 0.309,-0.481 0.264,-0.481C0.232,-0.481 0.202,-0.474 0.173,-0.459C0.144,-0.445 0.12,-0.425 0.101,-0.4L0.062,-0.432C0.085,-0.461 0.114,-0.485 0.149,-0.503C0.185,-0.521 0.222,-0.53 0.263,-0.53C0.334,-0.53 0.385,-0.513 0.417,-0.478C0.45,-0.442 0.466,-0.395 0.466,-0.336L0.466,0L0.408,0L0.408,-0.093C0.397,-0.063 0.375,-0.038 0.34,-0.016C0.306,0.007 0.267,0.018 0.222,0.018C0.166,0.018 0.123,0.004 0.091,-0.022C0.06,-0.048 0.044,-0.082 0.044,-0.123Z" style="fill-rule:nonzero;"/>
                    </g>
                    <g transform="matrix(361.725,0,0,361.725,3303.27,867.203)">
                        <path d="M0.083,0L0.083,-0.513L0.141,-0.513L0.141,-0.432C0.15,-0.456 0.168,-0.479 0.192,-0.5C0.217,-0.52 0.249,-0.53 0.288,-0.53C0.318,-0.53 0.343,-0.526 0.362,-0.517L0.362,-0.462C0.337,-0.472 0.312,-0.477 0.288,-0.477C0.243,-0.477 0.208,-0.46 0.182,-0.426C0.156,-0.392 0.144,-0.348 0.144,-0.294L0.144,0L0.083,0Z" style="fill-rule:nonzero;"/>
                    </g>
                    <g transform="matrix(361.725,0,0,361.725,3443.16,867.203)">
                        <path d="M0.01,-0.513L0.079,-0.513L0.194,-0.189C0.209,-0.147 0.224,-0.104 0.238,-0.061L0.241,-0.061C0.246,-0.077 0.254,-0.1 0.264,-0.129C0.274,-0.158 0.281,-0.179 0.285,-0.19L0.396,-0.513L0.464,-0.513L0.241,0.093C0.223,0.143 0.202,0.178 0.178,0.199C0.154,0.219 0.125,0.229 0.092,0.229L0.064,0.229L0.064,0.18L0.082,0.18C0.105,0.18 0.126,0.172 0.144,0.157C0.161,0.141 0.176,0.115 0.189,0.076L0.21,0.014L0.01,-0.513Z" style="fill-rule:nonzero;"/>
                    </g>
                    <g transform="matrix(361.725,0,0,361.725,955.241,1319.36)">
                        <path d="M0.047,-0.258C0.047,-0.342 0.067,-0.409 0.107,-0.458C0.147,-0.506 0.198,-0.53 0.261,-0.53C0.3,-0.53 0.335,-0.518 0.364,-0.494C0.393,-0.47 0.413,-0.442 0.425,-0.409L0.425,-0.746L0.483,-0.746L0.483,0L0.427,0L0.427,-0.103C0.414,-0.068 0.393,-0.039 0.364,-0.017C0.335,0.006 0.3,0.018 0.261,0.018C0.204,0.018 0.154,-0.006 0.111,-0.052C0.068,-0.098 0.047,-0.167 0.047,-0.258ZM0.107,-0.258C0.107,-0.189 0.122,-0.135 0.152,-0.094C0.181,-0.053 0.22,-0.032 0.269,-0.032C0.313,-0.032 0.35,-0.052 0.381,-0.093C0.411,-0.133 0.427,-0.188 0.427,-0.258C0.427,-0.326 0.411,-0.38 0.38,-0.42C0.349,-0.46 0.311,-0.48 0.268,-0.48C0.22,-0.48 0.181,-0.46 0.152,-0.42C0.122,-0.38 0.107,-0.326 0.107,-0.258Z" style="fill-rule:nonzero;"/>
                    </g>
                    <g transform="matrix(361.725,0,0,361.725,1161.89,1319.36)">
                        <path d="M0.047,-0.26C0.047,-0.34 0.068,-0.405 0.11,-0.455C0.153,-0.505 0.208,-0.53 0.276,-0.53C0.345,-0.53 0.4,-0.506 0.439,-0.457C0.479,-0.407 0.499,-0.346 0.499,-0.272C0.499,-0.265 0.498,-0.253 0.497,-0.237L0.107,-0.237C0.107,-0.181 0.123,-0.133 0.153,-0.093C0.183,-0.052 0.225,-0.032 0.279,-0.032C0.314,-0.032 0.345,-0.041 0.373,-0.058C0.4,-0.075 0.421,-0.097 0.436,-0.124L0.486,-0.107C0.469,-0.071 0.443,-0.041 0.408,-0.018C0.373,0.006 0.33,0.018 0.279,0.018C0.209,0.018 0.153,-0.008 0.11,-0.059C0.068,-0.11 0.047,-0.177 0.047,-0.26ZM0.108,-0.283L0.438,-0.283C0.438,-0.338 0.424,-0.384 0.395,-0.423C0.365,-0.461 0.326,-0.48 0.276,-0.48C0.226,-0.48 0.185,-0.461 0.155,-0.421C0.125,-0.382 0.11,-0.336 0.108,-0.283Z" style="fill-rule:nonzero;"/>
                    </g>
                    <g transform="matrix(361.725,0,0,361.725,1358.3,1319.36)">
                        <path d="M0.039,-0.096L0.085,-0.122C0.123,-0.062 0.176,-0.032 0.242,-0.032C0.283,-0.032 0.316,-0.04 0.342,-0.057C0.367,-0.073 0.38,-0.095 0.38,-0.124C0.38,-0.137 0.377,-0.149 0.371,-0.159C0.364,-0.169 0.358,-0.177 0.351,-0.184C0.343,-0.191 0.331,-0.198 0.313,-0.206C0.295,-0.213 0.281,-0.219 0.27,-0.222C0.259,-0.226 0.241,-0.231 0.215,-0.239C0.192,-0.246 0.173,-0.253 0.157,-0.26C0.141,-0.267 0.124,-0.276 0.107,-0.288C0.09,-0.3 0.076,-0.314 0.067,-0.331C0.058,-0.348 0.054,-0.368 0.054,-0.39C0.054,-0.432 0.071,-0.466 0.105,-0.492C0.139,-0.517 0.185,-0.53 0.242,-0.53C0.283,-0.53 0.321,-0.52 0.354,-0.499C0.388,-0.477 0.413,-0.452 0.428,-0.423L0.387,-0.396C0.373,-0.42 0.353,-0.44 0.328,-0.456C0.302,-0.472 0.273,-0.48 0.242,-0.48C0.201,-0.48 0.169,-0.472 0.147,-0.456C0.125,-0.439 0.113,-0.417 0.113,-0.389C0.113,-0.368 0.121,-0.35 0.137,-0.334C0.152,-0.318 0.169,-0.307 0.187,-0.299C0.205,-0.292 0.228,-0.284 0.257,-0.275C0.282,-0.268 0.304,-0.261 0.321,-0.254C0.339,-0.248 0.358,-0.238 0.378,-0.226C0.398,-0.214 0.414,-0.199 0.424,-0.182C0.435,-0.165 0.44,-0.146 0.44,-0.124C0.44,-0.084 0.423,-0.05 0.388,-0.023C0.353,0.004 0.305,0.018 0.242,0.018C0.198,0.018 0.158,0.008 0.123,-0.012C0.088,-0.032 0.06,-0.06 0.039,-0.096Z" style="fill-rule:nonzero;"/>
                    </g>
                    <g transform="matrix(361.725,0,0,361.725,1531.39,1319.36)">
                        <path d="M0.091,-0.639L0.091,-0.729L0.176,-0.729L0.176,-0.639L0.091,-0.639ZM0.104,0L0.104,-0.513L0.164,-0.513L0.164,0L0.104,0Z" style="fill-rule:nonzero;"/>
                    </g>
                    <g transform="matrix(361.725,0,0,361.725,1627.82,1319.36)">
                        <path d="M0.107,-0.266C0.107,-0.202 0.122,-0.15 0.15,-0.111C0.179,-0.071 0.216,-0.052 0.263,-0.052C0.31,-0.052 0.348,-0.071 0.375,-0.109C0.402,-0.147 0.416,-0.2 0.416,-0.268C0.416,-0.333 0.402,-0.384 0.374,-0.423C0.346,-0.461 0.31,-0.48 0.265,-0.48C0.216,-0.48 0.178,-0.46 0.15,-0.42C0.122,-0.38 0.107,-0.328 0.107,-0.266ZM0.047,-0.266C0.047,-0.345 0.066,-0.409 0.104,-0.458C0.143,-0.506 0.194,-0.53 0.257,-0.53C0.299,-0.53 0.333,-0.519 0.359,-0.496C0.385,-0.473 0.404,-0.447 0.416,-0.417L0.416,-0.513L0.475,-0.513L0.475,-0.053C0.475,0.044 0.458,0.115 0.424,0.163C0.391,0.21 0.337,0.233 0.263,0.233C0.183,0.233 0.121,0.203 0.077,0.144L0.12,0.115C0.161,0.161 0.209,0.185 0.264,0.185C0.314,0.185 0.353,0.166 0.378,0.128C0.403,0.09 0.416,0.038 0.416,-0.028L0.416,-0.111C0.403,-0.079 0.383,-0.053 0.357,-0.032C0.331,-0.011 0.298,-0.001 0.259,-0.001C0.194,-0.001 0.143,-0.026 0.104,-0.075C0.066,-0.125 0.047,-0.188 0.047,-0.266Z" style="fill-rule:nonzero;"/>
                    </g>
                    <g transform="matrix(361.725,0,0,361.725,1830.59,1319.36)">
                        <path d="M0.083,0L0.083,-0.513L0.142,-0.513L0.142,-0.416L0.143,-0.416C0.15,-0.442 0.169,-0.468 0.201,-0.493C0.232,-0.518 0.27,-0.53 0.314,-0.53C0.361,-0.53 0.399,-0.515 0.431,-0.486C0.462,-0.456 0.478,-0.405 0.478,-0.332L0.478,0L0.417,0L0.417,-0.321C0.417,-0.427 0.378,-0.48 0.301,-0.48C0.259,-0.48 0.222,-0.464 0.191,-0.43C0.159,-0.396 0.144,-0.356 0.144,-0.31L0.144,0L0.083,0Z" style="fill-rule:nonzero;"/>
                    </g>
                    <g transform="matrix(361.725,0,0,361.725,2031.23,1319.36)">
                        <path d="M0.047,-0.26C0.047,-0.34 0.068,-0.405 0.11,-0.455C0.153,-0.505 0.208,-0.53 0.276,-0.53C0.345,-0.53 0.4,-0.506 0.439,-0.457C0.479,-0.407 0.499,-0.346 0.499,-0.272C0.499,-0.265 0.498,-0.253 0.497,-0.237L0.107,-0.237C0.107,-0.181 0.123,-0.133 0.153,-0.093C0.183,-0.052 0.225,-0.032 0.279,-0.032C0.314,-0.032 0.345,-0.041 0.373,-0.058C0.4,-0.075 0.421,-0.097 0.436,-0.124L0.486,-0.107C0.469,-0.071 0.443,-0.041 0.408,-0.018C0.373,0.006 0.33,0.018 0.279,0.018C0.209,0.018 0.153,-0.008 0.11,-0.059C0.068,-0.11 0.047,-0.177 0.047,-0.26ZM0.108,-0.283L0.438,-0.283C0.438,-0.338 0.424,-0.384 0.395,-0.423C0.365,-0.461 0.326,-0.48 0.276,-0.48C0.226,-0.48 0.185,-0.461 0.155,-0.421C0.125,-0.382 0.11,-0.336 0.108,-0.283Z" style="fill-rule:nonzero;"/>
                    </g>
                    <g transform="matrix(361.725,0,0,361.725,2227.63,1319.36)">
                        <path d="M0.083,0L0.083,-0.513L0.141,-0.513L0.141,-0.432C0.15,-0.456 0.168,-0.479 0.192,-0.5C0.217,-0.52 0.249,-0.53 0.288,-0.53C0.318,-0.53 0.343,-0.526 0.362,-0.517L0.362,-0.462C0.337,-0.472 0.312,-0.477 0.288,-0.477C0.243,-0.477 0.208,-0.46 0.182,-0.426C0.156,-0.392 0.144,-0.348 0.144,-0.294L0.144,0L0.083,0Z" style="fill-rule:nonzero;"/>
                    </g>
                    <g transform="matrix(361.725,0,0,361.725,2446.29,1319.36)">
                        <path d="M0.089,0L0.089,-0.746L0.147,-0.746L0.147,-0.408C0.156,-0.438 0.175,-0.466 0.205,-0.492C0.235,-0.517 0.271,-0.53 0.312,-0.53C0.375,-0.53 0.427,-0.506 0.466,-0.458C0.506,-0.409 0.525,-0.342 0.525,-0.258C0.525,-0.167 0.504,-0.098 0.461,-0.052C0.419,-0.006 0.369,0.018 0.312,0.018C0.273,0.018 0.239,0.006 0.21,-0.017C0.181,-0.04 0.16,-0.068 0.147,-0.102L0.147,0L0.089,0ZM0.146,-0.258C0.146,-0.189 0.161,-0.134 0.191,-0.093C0.222,-0.053 0.259,-0.032 0.304,-0.032C0.351,-0.032 0.39,-0.052 0.42,-0.093C0.451,-0.133 0.466,-0.188 0.466,-0.258C0.466,-0.326 0.451,-0.38 0.421,-0.42C0.391,-0.46 0.352,-0.48 0.305,-0.48C0.261,-0.48 0.224,-0.46 0.192,-0.42C0.161,-0.38 0.146,-0.326 0.146,-0.258Z" style="fill-rule:nonzero;"/>
                    </g>
                    <g transform="matrix(361.725,0,0,361.725,2652.94,1319.36)">
                        <path d="M0.104,-0.127C0.104,-0.101 0.116,-0.079 0.138,-0.06C0.16,-0.042 0.19,-0.032 0.229,-0.032C0.278,-0.032 0.32,-0.048 0.355,-0.08C0.39,-0.111 0.407,-0.151 0.407,-0.2L0.407,-0.281C0.378,-0.272 0.329,-0.262 0.261,-0.252C0.206,-0.243 0.166,-0.228 0.142,-0.208C0.117,-0.188 0.104,-0.161 0.104,-0.127ZM0.044,-0.123C0.044,-0.17 0.061,-0.208 0.096,-0.237C0.131,-0.266 0.186,-0.286 0.262,-0.298C0.337,-0.31 0.386,-0.321 0.407,-0.329L0.407,-0.358C0.407,-0.394 0.395,-0.424 0.37,-0.447C0.345,-0.47 0.309,-0.481 0.264,-0.481C0.232,-0.481 0.202,-0.474 0.173,-0.459C0.144,-0.445 0.12,-0.425 0.101,-0.4L0.062,-0.432C0.085,-0.461 0.114,-0.485 0.149,-0.503C0.185,-0.521 0.222,-0.53 0.263,-0.53C0.334,-0.53 0.385,-0.513 0.417,-0.478C0.45,-0.442 0.466,-0.395 0.466,-0.336L0.466,0L0.408,0L0.408,-0.093C0.397,-0.063 0.375,-0.038 0.34,-0.016C0.306,0.007 0.267,0.018 0.222,0.018C0.166,0.018 0.123,0.004 0.091,-0.022C0.06,-0.048 0.044,-0.082 0.044,-0.123Z" style="fill-rule:nonzero;"/>
                    </g>
                    <g transform="matrix(361.725,0,0,361.725,2849.35,1319.36)">
                        <path d="M0.039,-0.096L0.085,-0.122C0.123,-0.062 0.176,-0.032 0.242,-0.032C0.283,-0.032 0.316,-0.04 0.342,-0.057C0.367,-0.073 0.38,-0.095 0.38,-0.124C0.38,-0.137 0.377,-0.149 0.371,-0.159C0.364,-0.169 0.358,-0.177 0.351,-0.184C0.343,-0.191 0.331,-0.198 0.313,-0.206C0.295,-0.213 0.281,-0.219 0.27,-0.222C0.259,-0.226 0.241,-0.231 0.215,-0.239C0.192,-0.246 0.173,-0.253 0.157,-0.26C0.141,-0.267 0.124,-0.276 0.107,-0.288C0.09,-0.3 0.076,-0.314 0.067,-0.331C0.058,-0.348 0.054,-0.368 0.054,-0.39C0.054,-0.432 0.071,-0.466 0.105,-0.492C0.139,-0.517 0.185,-0.53 0.242,-0.53C0.283,-0.53 0.321,-0.52 0.354,-0.499C0.388,-0.477 0.413,-0.452 0.428,-0.423L0.387,-0.396C0.373,-0.42 0.353,-0.44 0.328,-0.456C0.302,-0.472 0.273,-0.48 0.242,-0.48C0.201,-0.48 0.169,-0.472 0.147,-0.456C0.125,-0.439 0.113,-0.417 0.113,-0.389C0.113,-0.368 0.121,-0.35 0.137,-0.334C0.152,-0.318 0.169,-0.307 0.187,-0.299C0.205,-0.292 0.228,-0.284 0.257,-0.275C0.282,-0.268 0.304,-0.261 0.321,-0.254C0.339,-0.248 0.358,-0.238 0.378,-0.226C0.398,-0.214 0.414,-0.199 0.424,-0.182C0.435,-0.165 0.44,-0.146 0.44,-0.124C0.44,-0.084 0.423,-0.05 0.388,-0.023C0.353,0.004 0.305,0.018 0.242,0.018C0.198,0.018 0.158,0.008 0.123,-0.012C0.088,-0.032 0.06,-0.06 0.039,-0.096Z" style="fill-rule:nonzero;"/>
                    </g>
                    <g transform="matrix(361.725,0,0,361.725,3022.44,1319.36)">
                        <path d="M0.047,-0.26C0.047,-0.34 0.068,-0.405 0.11,-0.455C0.153,-0.505 0.208,-0.53 0.276,-0.53C0.345,-0.53 0.4,-0.506 0.439,-0.457C0.479,-0.407 0.499,-0.346 0.499,-0.272C0.499,-0.265 0.498,-0.253 0.497,-0.237L0.107,-0.237C0.107,-0.181 0.123,-0.133 0.153,-0.093C0.183,-0.052 0.225,-0.032 0.279,-0.032C0.314,-0.032 0.345,-0.041 0.373,-0.058C0.4,-0.075 0.421,-0.097 0.436,-0.124L0.486,-0.107C0.469,-0.071 0.443,-0.041 0.408,-0.018C0.373,0.006 0.33,0.018 0.279,0.018C0.209,0.018 0.153,-0.008 0.11,-0.059C0.068,-0.11 0.047,-0.177 0.047,-0.26ZM0.108,-0.283L0.438,-0.283C0.438,-0.338 0.424,-0.384 0.395,-0.423C0.365,-0.461 0.326,-0.48 0.276,-0.48C0.226,-0.48 0.185,-0.461 0.155,-0.421C0.125,-0.382 0.11,-0.336 0.108,-0.283Z" style="fill-rule:nonzero;"/>
                    </g>
                    <g transform="matrix(361.725,0,0,361.725,3218.84,1319.36)">
                        <path d="M0.047,-0.258C0.047,-0.342 0.067,-0.409 0.107,-0.458C0.147,-0.506 0.198,-0.53 0.261,-0.53C0.3,-0.53 0.335,-0.518 0.364,-0.494C0.393,-0.47 0.413,-0.442 0.425,-0.409L0.425,-0.746L0.483,-0.746L0.483,0L0.427,0L0.427,-0.103C0.414,-0.068 0.393,-0.039 0.364,-0.017C0.335,0.006 0.3,0.018 0.261,0.018C0.204,0.018 0.154,-0.006 0.111,-0.052C0.068,-0.098 0.047,-0.167 0.047,-0.258ZM0.107,-0.258C0.107,-0.189 0.122,-0.135 0.152,-0.094C0.181,-0.053 0.22,-0.032 0.269,-0.032C0.313,-0.032 0.35,-0.052 0.381,-0.093C0.411,-0.133 0.427,-0.188 0.427,-0.258C0.427,-0.326 0.411,-0.38 0.38,-0.42C0.349,-0.46 0.311,-0.48 0.268,-0.48C0.22,-0.48 0.181,-0.46 0.152,-0.42C0.122,-0.38 0.107,-0.326 0.107,-0.258Z" style="fill-rule:nonzero;"/>
                    </g>
                    <g transform="matrix(361.725,0,0,361.725,3513.81,1319.36)">
                        <path d="M0.091,-0.639L0.091,-0.729L0.176,-0.729L0.176,-0.639L0.091,-0.639ZM0.104,0L0.104,-0.513L0.164,-0.513L0.164,0L0.104,0Z" style="fill-rule:nonzero;"/>
                    </g>
                    <g transform="matrix(361.725,0,0,361.725,3610.24,1319.36)">
                        <path d="M0.083,0L0.083,-0.513L0.142,-0.513L0.142,-0.416L0.143,-0.416C0.15,-0.442 0.169,-0.468 0.201,-0.493C0.232,-0.518 0.27,-0.53 0.314,-0.53C0.361,-0.53 0.399,-0.515 0.431,-0.486C0.462,-0.456 0.478,-0.405 0.478,-0.332L0.478,0L0.417,0L0.417,-0.321C0.417,-0.427 0.378,-0.48 0.301,-0.48C0.259,-0.48 0.222,-0.464 0.191,-0.43C0.159,-0.396 0.144,-0.356 0.144,-0.31L0.144,0L0.083,0Z" style="fill-rule:nonzero;"/>
                    </g>
                    <g transform="matrix(361.725,0,0,361.725,3899.2,1319.36)">
                        <path d="M0.045,-0.127L0.103,-0.148C0.123,-0.114 0.15,-0.087 0.186,-0.066C0.221,-0.046 0.261,-0.036 0.308,-0.036C0.361,-0.036 0.404,-0.049 0.438,-0.075C0.472,-0.101 0.488,-0.137 0.488,-0.183C0.488,-0.201 0.485,-0.218 0.477,-0.233C0.47,-0.248 0.461,-0.261 0.451,-0.271C0.441,-0.281 0.426,-0.291 0.408,-0.301C0.389,-0.311 0.373,-0.318 0.358,-0.324C0.343,-0.329 0.324,-0.336 0.301,-0.344C0.279,-0.351 0.263,-0.356 0.252,-0.36C0.241,-0.363 0.226,-0.369 0.206,-0.377C0.187,-0.386 0.171,-0.393 0.161,-0.399C0.15,-0.406 0.138,-0.415 0.124,-0.425C0.11,-0.436 0.1,-0.447 0.093,-0.458C0.086,-0.47 0.079,-0.484 0.074,-0.5C0.069,-0.515 0.066,-0.533 0.066,-0.551C0.066,-0.607 0.088,-0.652 0.13,-0.685C0.173,-0.719 0.23,-0.735 0.303,-0.735C0.356,-0.735 0.403,-0.723 0.444,-0.699C0.485,-0.674 0.514,-0.644 0.531,-0.607L0.479,-0.589C0.439,-0.651 0.38,-0.683 0.301,-0.683C0.247,-0.683 0.206,-0.671 0.175,-0.646C0.145,-0.622 0.13,-0.59 0.13,-0.551C0.13,-0.521 0.141,-0.496 0.163,-0.475C0.184,-0.453 0.205,-0.438 0.226,-0.429C0.246,-0.42 0.279,-0.409 0.325,-0.394C0.33,-0.392 0.333,-0.39 0.336,-0.39C0.361,-0.381 0.383,-0.374 0.4,-0.367C0.418,-0.36 0.437,-0.351 0.458,-0.339C0.479,-0.327 0.495,-0.315 0.508,-0.301C0.52,-0.288 0.531,-0.271 0.539,-0.251C0.548,-0.232 0.552,-0.21 0.552,-0.186C0.552,-0.122 0.53,-0.072 0.485,-0.036C0.441,0 0.381,0.018 0.306,0.018C0.244,0.018 0.191,0.005 0.147,-0.021C0.103,-0.048 0.069,-0.083 0.045,-0.127Z" style="fill-rule:nonzero;"/>
                    </g>
                    <g transform="matrix(361.725,0,0,361.725,4115.03,1319.36)">
                        <path d="M0.047,-0.26C0.047,-0.34 0.068,-0.405 0.11,-0.455C0.153,-0.505 0.208,-0.53 0.276,-0.53C0.345,-0.53 0.4,-0.506 0.439,-0.457C0.479,-0.407 0.499,-0.346 0.499,-0.272C0.499,-0.265 0.498,-0.253 0.497,-0.237L0.107,-0.237C0.107,-0.181 0.123,-0.133 0.153,-0.093C0.183,-0.052 0.225,-0.032 0.279,-0.032C0.314,-0.032 0.345,-0.041 0.373,-0.058C0.4,-0.075 0.421,-0.097 0.436,-0.124L0.486,-0.107C0.469,-0.071 0.443,-0.041 0.408,-0.018C0.373,0.006 0.33,0.018 0.279,0.018C0.209,0.018 0.153,-0.008 0.11,-0.059C0.068,-0.11 0.047,-0.177 0.047,-0.26ZM0.108,-0.283L0.438,-0.283C0.438,-0.338 0.424,-0.384 0.395,-0.423C0.365,-0.461 0.326,-0.48 0.276,-0.48C0.226,-0.48 0.185,-0.461 0.155,-0.421C0.125,-0.382 0.11,-0.336 0.108,-0.283Z" style="fill-rule:nonzero;"/>
                    </g>
                    <g transform="matrix(361.725,0,0,361.725,4311.44,1319.36)">
                        <path d="M0.083,0L0.083,-0.513L0.141,-0.513L0.141,-0.432C0.15,-0.456 0.168,-0.479 0.192,-0.5C0.217,-0.52 0.249,-0.53 0.288,-0.53C0.318,-0.53 0.343,-0.526 0.362,-0.517L0.362,-0.462C0.337,-0.472 0.312,-0.477 0.288,-0.477C0.243,-0.477 0.208,-0.46 0.182,-0.426C0.156,-0.392 0.144,-0.348 0.144,-0.294L0.144,0L0.083,0Z" style="fill-rule:nonzero;"/>
                    </g>
                    <g transform="matrix(361.725,0,0,361.725,4441.78,1319.36)">
                        <path d="M0.089,0L0.089,-0.746L0.147,-0.746L0.147,-0.408C0.156,-0.438 0.175,-0.466 0.205,-0.492C0.235,-0.517 0.271,-0.53 0.312,-0.53C0.375,-0.53 0.427,-0.506 0.466,-0.458C0.506,-0.409 0.525,-0.342 0.525,-0.258C0.525,-0.167 0.504,-0.098 0.461,-0.052C0.419,-0.006 0.369,0.018 0.312,0.018C0.273,0.018 0.239,0.006 0.21,-0.017C0.181,-0.04 0.16,-0.068 0.147,-0.102L0.147,0L0.089,0ZM0.146,-0.258C0.146,-0.189 0.161,-0.134 0.191,-0.093C0.222,-0.053 0.259,-0.032 0.304,-0.032C0.351,-0.032 0.39,-0.052 0.42,-0.093C0.451,-0.133 0.466,-0.188 0.466,-0.258C0.466,-0.326 0.451,-0.38 0.421,-0.42C0.391,-0.46 0.352,-0.48 0.305,-0.48C0.261,-0.48 0.224,-0.46 0.192,-0.42C0.161,-0.38 0.146,-0.326 0.146,-0.258Z" style="fill-rule:nonzero;"/>
                    </g>
                    <g transform="matrix(361.725,0,0,361.725,4648.43,1319.36)">
                        <path d="M0.091,-0.639L0.091,-0.729L0.176,-0.729L0.176,-0.639L0.091,-0.639ZM0.104,0L0.104,-0.513L0.164,-0.513L0.164,0L0.104,0Z" style="fill-rule:nonzero;"/>
                    </g>
                    <g transform="matrix(361.725,0,0,361.725,4744.87,1319.36)">
                        <path d="M0.104,-0.127C0.104,-0.101 0.116,-0.079 0.138,-0.06C0.16,-0.042 0.19,-0.032 0.229,-0.032C0.278,-0.032 0.32,-0.048 0.355,-0.08C0.39,-0.111 0.407,-0.151 0.407,-0.2L0.407,-0.281C0.378,-0.272 0.329,-0.262 0.261,-0.252C0.206,-0.243 0.166,-0.228 0.142,-0.208C0.117,-0.188 0.104,-0.161 0.104,-0.127ZM0.044,-0.123C0.044,-0.17 0.061,-0.208 0.096,-0.237C0.131,-0.266 0.186,-0.286 0.262,-0.298C0.337,-0.31 0.386,-0.321 0.407,-0.329L0.407,-0.358C0.407,-0.394 0.395,-0.424 0.37,-0.447C0.345,-0.47 0.309,-0.481 0.264,-0.481C0.232,-0.481 0.202,-0.474 0.173,-0.459C0.144,-0.445 0.12,-0.425 0.101,-0.4L0.062,-0.432C0.085,-0.461 0.114,-0.485 0.149,-0.503C0.185,-0.521 0.222,-0.53 0.263,-0.53C0.334,-0.53 0.385,-0.513 0.417,-0.478C0.45,-0.442 0.466,-0.395 0.466,-0.336L0.466,0L0.408,0L0.408,-0.093C0.397,-0.063 0.375,-0.038 0.34,-0.016C0.306,0.007 0.267,0.018 0.222,0.018C0.166,0.018 0.123,0.004 0.091,-0.022C0.06,-0.048 0.044,-0.082 0.044,-0.123Z" style="fill-rule:nonzero;"/>
                    </g>
                </g>
                <g transform="matrix(27.0637,0,0,27.0637,-7678.63,-8277.96)">
                    <g transform="matrix(12,0,0,12,305.464,330.778)">
                        <path d="M0.072,-0.714L0.072,0L0.319,0C0.428,-0.003 0.509,-0.033 0.565,-0.092C0.62,-0.15 0.647,-0.238 0.647,-0.357C0.647,-0.476 0.62,-0.564 0.565,-0.623C0.509,-0.681 0.428,-0.711 0.319,-0.714L0.072,-0.714ZM0.14,-0.058L0.14,-0.656L0.285,-0.656C0.336,-0.656 0.381,-0.651 0.418,-0.64C0.455,-0.628 0.485,-0.611 0.509,-0.587C0.533,-0.563 0.551,-0.532 0.562,-0.494C0.573,-0.456 0.579,-0.41 0.579,-0.357C0.579,-0.304 0.573,-0.258 0.562,-0.22C0.551,-0.182 0.533,-0.151 0.509,-0.127C0.485,-0.103 0.455,-0.086 0.418,-0.075C0.381,-0.064 0.336,-0.058 0.285,-0.058L0.14,-0.058Z" style="fill-rule:nonzero;"/>
                    </g>
                    <g transform="matrix(12,0,0,12,313.684,330.778)">
                        <path d="M0.431,-0.294L0.097,-0.294C0.1,-0.317 0.105,-0.34 0.114,-0.363C0.122,-0.385 0.133,-0.405 0.147,-0.422C0.161,-0.439 0.178,-0.452 0.198,-0.463C0.218,-0.473 0.241,-0.478 0.267,-0.478C0.292,-0.478 0.315,-0.473 0.335,-0.463C0.355,-0.452 0.372,-0.439 0.386,-0.422C0.4,-0.405 0.411,-0.385 0.419,-0.363C0.426,-0.341 0.43,-0.318 0.431,-0.294ZM0.097,-0.241L0.494,-0.241C0.495,-0.277 0.492,-0.313 0.484,-0.348C0.476,-0.383 0.463,-0.413 0.445,-0.441C0.426,-0.467 0.402,-0.489 0.373,-0.506C0.344,-0.523 0.308,-0.531 0.267,-0.531C0.226,-0.531 0.191,-0.523 0.162,-0.508C0.132,-0.492 0.108,-0.471 0.089,-0.446C0.07,-0.42 0.056,-0.391 0.048,-0.358C0.039,-0.325 0.034,-0.292 0.034,-0.258C0.034,-0.221 0.039,-0.187 0.048,-0.154C0.056,-0.121 0.07,-0.092 0.089,-0.067C0.108,-0.042 0.132,-0.022 0.162,-0.008C0.191,0.007 0.226,0.014 0.267,0.014C0.332,0.014 0.383,-0.002 0.419,-0.034C0.454,-0.066 0.479,-0.111 0.492,-0.17L0.429,-0.17C0.419,-0.13 0.401,-0.098 0.375,-0.074C0.349,-0.05 0.313,-0.038 0.267,-0.038C0.237,-0.038 0.211,-0.044 0.19,-0.057C0.169,-0.07 0.151,-0.086 0.137,-0.105C0.123,-0.124 0.113,-0.146 0.107,-0.171C0.1,-0.195 0.097,-0.218 0.097,-0.241Z" style="fill-rule:nonzero;"/>
                    </g>
                    <g transform="matrix(12,0,0,12,319.912,330.778)">
                        <path d="M0.369,-0.365L0.432,-0.365C0.431,-0.393 0.425,-0.417 0.415,-0.438C0.405,-0.459 0.392,-0.476 0.375,-0.49C0.358,-0.504 0.338,-0.514 0.316,-0.521C0.293,-0.528 0.269,-0.531 0.243,-0.531C0.22,-0.531 0.198,-0.528 0.175,-0.523C0.152,-0.518 0.131,-0.509 0.112,-0.498C0.093,-0.487 0.078,-0.472 0.067,-0.453C0.055,-0.434 0.049,-0.412 0.049,-0.386C0.049,-0.364 0.053,-0.345 0.06,-0.331C0.067,-0.316 0.078,-0.303 0.091,-0.293C0.103,-0.282 0.119,-0.274 0.136,-0.267C0.153,-0.26 0.172,-0.253 0.193,-0.248L0.274,-0.23C0.288,-0.227 0.302,-0.223 0.316,-0.218C0.329,-0.213 0.341,-0.208 0.352,-0.201C0.363,-0.194 0.371,-0.185 0.378,-0.175C0.384,-0.164 0.387,-0.151 0.387,-0.136C0.387,-0.118 0.383,-0.103 0.374,-0.091C0.365,-0.078 0.353,-0.068 0.339,-0.06C0.325,-0.052 0.31,-0.046 0.294,-0.043C0.277,-0.04 0.261,-0.038 0.246,-0.038C0.204,-0.038 0.169,-0.049 0.141,-0.071C0.112,-0.092 0.097,-0.124 0.094,-0.167L0.031,-0.167C0.036,-0.104 0.058,-0.058 0.096,-0.029C0.133,0 0.182,0.014 0.243,0.014C0.267,0.014 0.291,0.011 0.316,0.006C0.341,0.001 0.363,-0.008 0.383,-0.021C0.402,-0.033 0.418,-0.049 0.431,-0.069C0.444,-0.088 0.45,-0.112 0.45,-0.14C0.45,-0.163 0.446,-0.182 0.437,-0.199C0.428,-0.216 0.417,-0.23 0.404,-0.241C0.39,-0.252 0.374,-0.262 0.357,-0.269C0.339,-0.276 0.321,-0.28 0.303,-0.283L0.219,-0.302C0.208,-0.305 0.197,-0.308 0.184,-0.313C0.171,-0.317 0.16,-0.322 0.149,-0.329C0.138,-0.336 0.13,-0.344 0.123,-0.354C0.116,-0.363 0.112,-0.375 0.112,-0.389C0.112,-0.406 0.116,-0.42 0.123,-0.431C0.13,-0.442 0.14,-0.452 0.152,-0.459C0.164,-0.466 0.177,-0.471 0.192,-0.474C0.206,-0.476 0.22,-0.478 0.234,-0.478C0.252,-0.478 0.269,-0.476 0.285,-0.472C0.301,-0.467 0.315,-0.46 0.328,-0.451C0.34,-0.442 0.35,-0.43 0.357,-0.416C0.364,-0.401 0.368,-0.384 0.369,-0.365Z" style="fill-rule:nonzero;"/>
                    </g>
                    <g transform="matrix(12,0,0,12,325.684,330.778)">
                        <path d="M0.061,-0.714L0.061,-0.613L0.124,-0.613L0.124,-0.714L0.061,-0.714ZM0.061,-0.516L0.061,0L0.124,0L0.124,-0.516L0.061,-0.516Z" style="fill-rule:nonzero;"/>
                    </g>
                    <g transform="matrix(12,0,0,12,327.904,330.778)">
                        <path d="M0.496,-0.042L0.496,-0.516L0.433,-0.516L0.433,-0.427L0.431,-0.427C0.425,-0.441 0.417,-0.454 0.406,-0.467C0.395,-0.48 0.382,-0.491 0.368,-0.501C0.354,-0.51 0.339,-0.518 0.322,-0.523C0.305,-0.528 0.286,-0.531 0.267,-0.531C0.23,-0.531 0.197,-0.524 0.168,-0.511C0.138,-0.497 0.114,-0.478 0.095,-0.455C0.075,-0.431 0.06,-0.403 0.05,-0.372C0.039,-0.34 0.034,-0.306 0.034,-0.271C0.034,-0.234 0.038,-0.2 0.047,-0.168C0.056,-0.135 0.069,-0.107 0.089,-0.083C0.108,-0.059 0.132,-0.04 0.161,-0.027C0.19,-0.013 0.226,-0.006 0.267,-0.006C0.305,-0.006 0.338,-0.016 0.367,-0.035C0.395,-0.054 0.416,-0.08 0.431,-0.112L0.433,-0.112L0.433,-0.042C0.433,0.021 0.42,0.069 0.394,0.102C0.368,0.135 0.326,0.152 0.267,0.152C0.25,0.152 0.233,0.15 0.216,0.147C0.199,0.143 0.184,0.137 0.171,0.129C0.157,0.121 0.145,0.111 0.136,0.098C0.126,0.085 0.119,0.068 0.116,0.049L0.053,0.049C0.055,0.076 0.063,0.1 0.076,0.12C0.089,0.139 0.105,0.155 0.125,0.168C0.144,0.181 0.166,0.19 0.191,0.196C0.216,0.202 0.241,0.205 0.267,0.205C0.309,0.205 0.345,0.199 0.374,0.188C0.403,0.177 0.426,0.16 0.444,0.139C0.462,0.118 0.475,0.092 0.484,0.061C0.492,0.03 0.496,-0.004 0.496,-0.042ZM0.267,-0.059C0.238,-0.059 0.212,-0.065 0.191,-0.077C0.17,-0.088 0.152,-0.103 0.138,-0.123C0.124,-0.141 0.114,-0.163 0.107,-0.188C0.1,-0.213 0.097,-0.238 0.097,-0.264C0.097,-0.291 0.1,-0.317 0.107,-0.343C0.113,-0.368 0.123,-0.391 0.137,-0.411C0.151,-0.431 0.169,-0.447 0.19,-0.46C0.211,-0.472 0.237,-0.478 0.267,-0.478C0.297,-0.478 0.323,-0.472 0.344,-0.459C0.365,-0.446 0.382,-0.43 0.395,-0.409C0.408,-0.388 0.418,-0.365 0.424,-0.34C0.43,-0.315 0.433,-0.289 0.433,-0.264C0.433,-0.238 0.43,-0.213 0.423,-0.188C0.416,-0.163 0.405,-0.141 0.391,-0.123C0.377,-0.103 0.36,-0.088 0.339,-0.077C0.318,-0.065 0.294,-0.059 0.267,-0.059Z" style="fill-rule:nonzero;"/>
                    </g>
                    <g transform="matrix(12,0,0,12,334.576,330.778)">
                        <path d="M0.059,-0.516L0.059,0L0.122,0L0.122,-0.301C0.123,-0.326 0.127,-0.35 0.135,-0.372C0.142,-0.393 0.153,-0.412 0.167,-0.428C0.18,-0.443 0.197,-0.456 0.217,-0.465C0.236,-0.474 0.259,-0.478 0.284,-0.478C0.309,-0.478 0.331,-0.474 0.348,-0.466C0.365,-0.458 0.378,-0.447 0.388,-0.433C0.398,-0.419 0.405,-0.403 0.409,-0.384C0.413,-0.365 0.415,-0.344 0.415,-0.322L0.415,0L0.478,0L0.478,-0.332C0.478,-0.363 0.475,-0.39 0.469,-0.415C0.463,-0.44 0.453,-0.46 0.438,-0.478C0.423,-0.495 0.404,-0.508 0.38,-0.517C0.355,-0.526 0.325,-0.531 0.289,-0.531C0.252,-0.531 0.219,-0.522 0.188,-0.503C0.157,-0.484 0.136,-0.458 0.124,-0.427L0.122,-0.427L0.122,-0.516L0.059,-0.516Z" style="fill-rule:nonzero;"/>
                    </g>
                    <g transform="matrix(12,0,0,12,344.356,330.778)">
                        <path d="M0.284,-0.661C0.31,-0.661 0.332,-0.653 0.351,-0.638C0.37,-0.622 0.379,-0.599 0.379,-0.569C0.379,-0.552 0.376,-0.536 0.369,-0.522C0.362,-0.507 0.354,-0.494 0.343,-0.483C0.332,-0.471 0.321,-0.46 0.308,-0.451C0.295,-0.442 0.282,-0.433 0.269,-0.425C0.261,-0.434 0.252,-0.445 0.243,-0.457C0.234,-0.468 0.225,-0.48 0.217,-0.493C0.209,-0.505 0.202,-0.518 0.197,-0.531C0.192,-0.544 0.189,-0.556 0.189,-0.569C0.189,-0.599 0.198,-0.622 0.217,-0.638C0.236,-0.653 0.258,-0.661 0.284,-0.661ZM0.465,-0.093L0.541,0L0.62,0L0.5,-0.145C0.517,-0.176 0.528,-0.207 0.534,-0.239C0.539,-0.27 0.542,-0.296 0.542,-0.316L0.479,-0.316C0.479,-0.289 0.478,-0.266 0.475,-0.249C0.472,-0.231 0.467,-0.213 0.458,-0.196L0.302,-0.384C0.32,-0.395 0.337,-0.407 0.354,-0.42C0.371,-0.432 0.386,-0.445 0.399,-0.46C0.411,-0.475 0.422,-0.491 0.43,-0.509C0.438,-0.527 0.442,-0.547 0.442,-0.569C0.442,-0.591 0.438,-0.611 0.43,-0.629C0.421,-0.646 0.41,-0.661 0.396,-0.674C0.381,-0.687 0.365,-0.697 0.346,-0.704C0.327,-0.711 0.306,-0.714 0.284,-0.714C0.262,-0.714 0.242,-0.711 0.223,-0.704C0.204,-0.697 0.187,-0.687 0.173,-0.674C0.158,-0.661 0.147,-0.646 0.139,-0.629C0.13,-0.611 0.126,-0.591 0.126,-0.569C0.126,-0.552 0.129,-0.535 0.135,-0.52C0.14,-0.505 0.147,-0.49 0.156,-0.476C0.164,-0.462 0.173,-0.448 0.184,-0.436C0.194,-0.423 0.204,-0.41 0.214,-0.397C0.194,-0.386 0.174,-0.374 0.153,-0.36C0.132,-0.346 0.114,-0.33 0.097,-0.313C0.08,-0.296 0.066,-0.276 0.055,-0.255C0.044,-0.234 0.039,-0.21 0.039,-0.185C0.039,-0.152 0.045,-0.124 0.056,-0.099C0.067,-0.074 0.082,-0.054 0.101,-0.037C0.12,-0.02 0.143,-0.008 0.17,0.001C0.196,0.01 0.224,0.014 0.255,0.014C0.297,0.014 0.336,0.004 0.372,-0.015C0.408,-0.034 0.439,-0.06 0.465,-0.093ZM0.248,-0.356L0.426,-0.14C0.406,-0.111 0.382,-0.087 0.354,-0.068C0.325,-0.048 0.293,-0.038 0.257,-0.038C0.237,-0.038 0.218,-0.041 0.199,-0.048C0.18,-0.055 0.164,-0.064 0.15,-0.077C0.135,-0.09 0.124,-0.105 0.115,-0.122C0.106,-0.139 0.102,-0.158 0.102,-0.179C0.102,-0.2 0.106,-0.22 0.115,-0.238C0.124,-0.255 0.135,-0.271 0.149,-0.286C0.163,-0.301 0.179,-0.314 0.196,-0.325C0.213,-0.336 0.231,-0.347 0.248,-0.356Z" style="fill-rule:nonzero;"/>
                    </g>
                </g>
                <g transform="matrix(27.0637,0,0,27.0637,-8191.61,-8584.39)">
                    <g transform="matrix(12,0,0,12,305.464,330.778)">
                        <path d="M0.037,-0.714L0.037,-0.656L0.475,-0.656L0.005,-0.06L0.005,0L0.561,0L0.561,-0.058L0.081,-0.058L0.551,-0.654L0.551,-0.714L0.037,-0.714Z" style="fill-rule:nonzero;"/>
                    </g>
                    <g transform="matrix(12,0,0,12,312.352,330.778)">
                        <path d="M0.061,-0.714L0.061,-0.613L0.124,-0.613L0.124,-0.714L0.061,-0.714ZM0.061,-0.516L0.061,0L0.124,0L0.124,-0.516L0.061,-0.516Z" style="fill-rule:nonzero;"/>
                    </g>
                    <g transform="matrix(12,0,0,12,314.572,330.778)">
                        <path d="M0.002,-0.516L0.201,0L0.268,0L0.461,-0.516L0.396,-0.516L0.236,-0.063L0.234,-0.063L0.072,-0.516L0.002,-0.516Z" style="fill-rule:nonzero;"/>
                    </g>
                    <g transform="matrix(12,0,0,12,320.128,330.778)">
                        <path d="M0.054,-0.358L0.117,-0.358C0.118,-0.4 0.132,-0.431 0.157,-0.45C0.182,-0.468 0.215,-0.478 0.255,-0.478C0.274,-0.478 0.291,-0.476 0.308,-0.474C0.324,-0.471 0.338,-0.465 0.351,-0.457C0.363,-0.449 0.373,-0.438 0.38,-0.425C0.387,-0.411 0.39,-0.393 0.39,-0.372C0.39,-0.358 0.388,-0.347 0.385,-0.338C0.381,-0.329 0.376,-0.323 0.369,-0.318C0.362,-0.313 0.354,-0.309 0.344,-0.307C0.334,-0.305 0.322,-0.303 0.309,-0.302C0.275,-0.298 0.242,-0.294 0.209,-0.29C0.175,-0.285 0.146,-0.278 0.12,-0.267C0.093,-0.256 0.072,-0.241 0.056,-0.221C0.04,-0.2 0.032,-0.172 0.032,-0.136C0.032,-0.11 0.037,-0.088 0.046,-0.069C0.055,-0.05 0.067,-0.034 0.083,-0.022C0.098,-0.009 0.117,0 0.138,0.006C0.159,0.011 0.181,0.014 0.205,0.014C0.23,0.014 0.252,0.012 0.271,0.007C0.289,0.002 0.305,-0.004 0.32,-0.013C0.334,-0.022 0.347,-0.033 0.359,-0.046C0.37,-0.058 0.382,-0.073 0.393,-0.09L0.395,-0.09C0.395,-0.077 0.396,-0.065 0.398,-0.054C0.399,-0.043 0.403,-0.033 0.408,-0.025C0.413,-0.017 0.421,-0.011 0.431,-0.007C0.44,-0.002 0.453,0 0.469,0C0.478,0 0.485,0 0.491,-0.001C0.496,-0.002 0.503,-0.003 0.51,-0.004L0.51,-0.057C0.504,-0.054 0.497,-0.053 0.49,-0.053C0.465,-0.053 0.453,-0.066 0.453,-0.091L0.453,-0.365C0.453,-0.4 0.447,-0.428 0.436,-0.45C0.425,-0.471 0.41,-0.488 0.392,-0.5C0.374,-0.512 0.354,-0.52 0.331,-0.525C0.308,-0.529 0.286,-0.531 0.263,-0.531C0.233,-0.531 0.206,-0.528 0.181,-0.521C0.156,-0.514 0.135,-0.504 0.117,-0.49C0.098,-0.476 0.084,-0.458 0.073,-0.436C0.062,-0.414 0.056,-0.388 0.054,-0.358ZM0.39,-0.282L0.39,-0.2C0.39,-0.175 0.385,-0.152 0.376,-0.132C0.366,-0.112 0.353,-0.095 0.337,-0.081C0.32,-0.067 0.301,-0.056 0.279,-0.049C0.257,-0.042 0.234,-0.038 0.21,-0.038C0.195,-0.038 0.181,-0.04 0.167,-0.045C0.153,-0.05 0.141,-0.057 0.13,-0.066C0.119,-0.075 0.111,-0.085 0.105,-0.098C0.098,-0.11 0.095,-0.124 0.095,-0.14C0.095,-0.165 0.102,-0.185 0.118,-0.199C0.133,-0.212 0.152,-0.223 0.175,-0.23C0.198,-0.237 0.224,-0.243 0.253,-0.247C0.281,-0.25 0.308,-0.254 0.335,-0.259C0.344,-0.26 0.354,-0.263 0.365,-0.266C0.376,-0.269 0.384,-0.275 0.388,-0.282L0.39,-0.282Z" style="fill-rule:nonzero;"/>
                    </g>
                    <g transform="matrix(12,0,0,12,326.356,330.778)">
                        <path d="M0.059,-0.516L0.059,0L0.122,0L0.122,-0.301C0.123,-0.326 0.127,-0.35 0.135,-0.372C0.142,-0.393 0.153,-0.412 0.167,-0.428C0.18,-0.443 0.197,-0.456 0.217,-0.465C0.236,-0.474 0.259,-0.478 0.284,-0.478C0.309,-0.478 0.331,-0.474 0.348,-0.466C0.365,-0.458 0.378,-0.447 0.388,-0.433C0.398,-0.419 0.405,-0.403 0.409,-0.384C0.413,-0.365 0.415,-0.344 0.415,-0.322L0.415,0L0.478,0L0.478,-0.332C0.478,-0.363 0.475,-0.39 0.469,-0.415C0.463,-0.44 0.453,-0.46 0.438,-0.478C0.423,-0.495 0.404,-0.508 0.38,-0.517C0.355,-0.526 0.325,-0.531 0.289,-0.531C0.252,-0.531 0.219,-0.522 0.188,-0.503C0.157,-0.484 0.136,-0.458 0.124,-0.427L0.122,-0.427L0.122,-0.516L0.059,-0.516Z" style="fill-rule:nonzero;"/>
                    </g>
                    <g transform="matrix(12,0,0,12,332.8,330.778)">
                        <path d="M0.278,-0.478C0.308,-0.478 0.334,-0.472 0.357,-0.459C0.38,-0.446 0.399,-0.43 0.414,-0.409C0.429,-0.388 0.44,-0.365 0.448,-0.339C0.455,-0.312 0.459,-0.285 0.459,-0.258C0.459,-0.231 0.455,-0.204 0.448,-0.178C0.44,-0.151 0.429,-0.128 0.414,-0.107C0.399,-0.086 0.38,-0.07 0.357,-0.057C0.334,-0.044 0.308,-0.038 0.278,-0.038C0.248,-0.038 0.222,-0.044 0.199,-0.057C0.176,-0.07 0.158,-0.086 0.143,-0.107C0.128,-0.128 0.116,-0.151 0.109,-0.178C0.101,-0.204 0.097,-0.231 0.097,-0.258C0.097,-0.285 0.101,-0.312 0.109,-0.339C0.116,-0.365 0.128,-0.388 0.143,-0.409C0.158,-0.43 0.176,-0.446 0.199,-0.459C0.222,-0.472 0.248,-0.478 0.278,-0.478ZM0.278,-0.531C0.239,-0.531 0.204,-0.524 0.174,-0.509C0.143,-0.494 0.118,-0.475 0.097,-0.45C0.076,-0.425 0.061,-0.397 0.05,-0.364C0.039,-0.331 0.034,-0.295 0.034,-0.258C0.034,-0.221 0.039,-0.186 0.05,-0.153C0.061,-0.12 0.076,-0.091 0.097,-0.066C0.118,-0.041 0.143,-0.022 0.174,-0.008C0.204,0.007 0.239,0.014 0.278,0.014C0.317,0.014 0.352,0.007 0.383,-0.008C0.413,-0.022 0.438,-0.041 0.459,-0.066C0.48,-0.091 0.495,-0.12 0.506,-0.153C0.517,-0.186 0.522,-0.221 0.522,-0.258C0.522,-0.295 0.517,-0.331 0.506,-0.364C0.495,-0.397 0.48,-0.425 0.459,-0.45C0.438,-0.475 0.413,-0.494 0.383,-0.509C0.352,-0.524 0.317,-0.531 0.278,-0.531Z" style="fill-rule:nonzero;"/>
                    </g>
                    <g transform="matrix(12,0,0,12,339.472,330.778)">
                        <path d="M0.002,-0.516L0.201,0L0.268,0L0.461,-0.516L0.396,-0.516L0.236,-0.063L0.234,-0.063L0.072,-0.516L0.002,-0.516Z" style="fill-rule:nonzero;"/>
                    </g>
                    <g transform="matrix(12,0,0,12,345.028,330.778)">
                        <path d="M0.061,-0.714L0.061,-0.613L0.124,-0.613L0.124,-0.714L0.061,-0.714ZM0.061,-0.516L0.061,0L0.124,0L0.124,-0.516L0.061,-0.516Z" style="fill-rule:nonzero;"/>
                    </g>
                    <g transform="matrix(12,0,0,12,347.248,330.778)">
                        <path d="M0.424,-0.354L0.487,-0.354C0.48,-0.413 0.457,-0.458 0.419,-0.487C0.38,-0.516 0.333,-0.531 0.278,-0.531C0.239,-0.531 0.204,-0.524 0.174,-0.509C0.143,-0.494 0.118,-0.475 0.097,-0.45C0.076,-0.425 0.061,-0.397 0.05,-0.364C0.039,-0.331 0.034,-0.295 0.034,-0.258C0.034,-0.221 0.039,-0.186 0.05,-0.153C0.061,-0.12 0.076,-0.091 0.097,-0.066C0.118,-0.041 0.143,-0.022 0.174,-0.008C0.204,0.007 0.239,0.014 0.278,0.014C0.337,0.014 0.385,-0.003 0.422,-0.039C0.459,-0.074 0.482,-0.122 0.491,-0.185L0.428,-0.185C0.426,-0.164 0.421,-0.144 0.412,-0.126C0.403,-0.108 0.392,-0.093 0.379,-0.08C0.366,-0.067 0.35,-0.056 0.333,-0.049C0.316,-0.042 0.297,-0.038 0.278,-0.038C0.248,-0.038 0.222,-0.044 0.199,-0.057C0.176,-0.07 0.158,-0.086 0.143,-0.107C0.128,-0.128 0.116,-0.151 0.109,-0.178C0.101,-0.204 0.097,-0.231 0.097,-0.258C0.097,-0.285 0.101,-0.312 0.109,-0.339C0.116,-0.365 0.128,-0.388 0.143,-0.409C0.158,-0.43 0.176,-0.446 0.199,-0.459C0.222,-0.472 0.248,-0.478 0.278,-0.478C0.32,-0.478 0.353,-0.467 0.376,-0.445C0.399,-0.423 0.415,-0.393 0.424,-0.354Z" style="fill-rule:nonzero;"/>
                    </g>
                </g>
            </g>
            <g transform="matrix(1,0,0,1,15.2527,125.969)">
                <path d="M914,808L1360,808" style="fill:none;stroke:black;stroke-width:1px;"/>
            </g>
            <g transform="matrix(2.12155,0,0,2.55924,-53.0387,-194.502)">
                <rect x="25" y="76" width="905" height="422" style="fill:none;"/>
            </g>
        </g>
    </g>
</svg>
