<?xml version="1.0" encoding="UTF-8" standalone="no"?>
<!DOCTYPE svg PUBLIC "-//W3C//DTD SVG 1.1//EN" "http://www.w3.org/Graphics/SVG/1.1/DTD/svg11.dtd">
<svg width="100%" height="100%" viewBox="0 0 32 32" version="1.1" xmlns="http://www.w3.org/2000/svg" xmlns:xlink="http://www.w3.org/1999/xlink" xml:space="preserve" xmlns:serif="http://www.serif.com/" style="fill-rule:evenodd;clip-rule:evenodd;stroke-linecap:round;stroke-linejoin:round;stroke-miterlimit:1.5;">
    <g transform="matrix(1,0,0,1,-255.333,-23.7999)">
        <g transform="matrix(0.935829,0,0,5.15443,-4159.87,-55719)">
            <g transform="matrix(0.534286,0,0,0.0970039,4363.29,10794.2)">
                <path d="M665.157,210.759L725.157,210.759L725.157,270.759L665.157,270.759C665.157,270.759 665.157,210.759 665.157,210.759ZM695.157,240.759L695.157,250.759L705.157,250.759L705.157,240.759L695.157,240.759ZM685.157,230.759C685.157,230.759 685.157,240.759 685.157,240.759L695.157,240.759L695.157,230.759C695.157,230.759 685.157,230.759 685.157,230.759Z" style="fill:none;stroke:black;stroke-width:2.67px;"/>
            </g>
        </g>
    </g>
</svg>