<?xml version="1.0" encoding="UTF-8" standalone="no"?>
<!DOCTYPE svg PUBLIC "-//W3C//DTD SVG 1.1//EN" "http://www.w3.org/Graphics/SVG/1.1/DTD/svg11.dtd">
<svg width="100%" height="100%" viewBox="0 0 66 66" version="1.1" xmlns="http://www.w3.org/2000/svg" xmlns:xlink="http://www.w3.org/1999/xlink" xml:space="preserve" xmlns:serif="http://www.serif.com/" style="fill-rule:evenodd;clip-rule:evenodd;stroke-linejoin:round;stroke-miterlimit:2;">
    <g transform="matrix(1,0,0,1,-2056.98,-362.356)">
        <g>
            <g transform="matrix(1,0,0,1,-91.5133,91.9265)">
                <g transform="matrix(0.122102,-1.04074e-34,0,0.443301,1746.82,197.616)">
                    <rect x="3289.62" y="164.253" width="180.178" height="49.246" style="fill:none;"/>
                </g>
                <g transform="matrix(0.982094,0,0,0.982094,-1235.7,-333.822)">
                    <rect x="3450.98" y="620.336" width="1.018" height="0.994" style="fill:white;"/>
                </g>
                <g>
                    <g transform="matrix(0.982094,0,0,0.982094,-1235.7,-334.798)">
                        <rect x="3450.98" y="620.336" width="1.018" height="0.994" style="fill:white;fill-opacity:0.3;"/>
                    </g>
                    <g transform="matrix(0.982094,0,0,0.982094,-1235.7,-323.895)">
                        <rect x="3450.98" y="620.336" width="1.018" height="0.994" style="fill:white;fill-opacity:0.3;"/>
                    </g>
                    <g transform="matrix(0.982094,0,0,0.982094,-1224.7,-334.798)">
                        <rect x="3450.98" y="620.336" width="1.018" height="0.994" style="fill:white;fill-opacity:0.3;"/>
                    </g>
                    <g transform="matrix(0.982094,0,0,0.982094,-1224.7,-323.895)">
                        <rect x="3450.98" y="620.336" width="1.018" height="0.994" style="fill:white;fill-opacity:0.3;"/>
                    </g>
                    <g transform="matrix(0.982094,0,0,0.982094,-1235.7,-312.967)">
                        <rect x="3450.98" y="620.336" width="1.018" height="0.994" style="fill:white;fill-opacity:0.3;"/>
                    </g>
                    <g transform="matrix(0.982094,0,0,0.982094,-1235.7,-302.064)">
                        <rect x="3450.98" y="620.336" width="1.018" height="0.994" style="fill:white;fill-opacity:0.3;"/>
                    </g>
                    <g transform="matrix(0.982094,0,0,0.982094,-1224.7,-312.967)">
                        <rect x="3450.98" y="620.336" width="1.018" height="0.994" style="fill:white;fill-opacity:0.3;"/>
                    </g>
                    <g transform="matrix(0.982094,0,0,0.982094,-1224.7,-302.064)">
                        <rect x="3450.98" y="620.336" width="1.018" height="0.994" style="fill:white;fill-opacity:0.3;"/>
                    </g>
                    <g transform="matrix(0.982094,0,0,0.982094,-1235.7,-291.136)">
                        <rect x="3450.98" y="620.336" width="1.018" height="0.994" style="fill:white;fill-opacity:0.3;"/>
                    </g>
                    <g transform="matrix(0.982094,0,0,0.982094,-1235.7,-280.233)">
                        <rect x="3450.98" y="620.336" width="1.018" height="0.994" style="fill:white;fill-opacity:0.3;"/>
                    </g>
                    <g transform="matrix(0.982094,0,0,0.982094,-1224.7,-291.136)">
                        <rect x="3450.98" y="620.336" width="1.018" height="0.994" style="fill:white;fill-opacity:0.3;"/>
                    </g>
                    <g transform="matrix(0.982094,0,0,0.982094,-1224.7,-280.233)">
                        <rect x="3450.98" y="620.336" width="1.018" height="0.994" style="fill:white;fill-opacity:0.3;"/>
                    </g>
                    <g transform="matrix(0.982094,0,0,0.982094,-1213.7,-334.798)">
                        <rect x="3450.98" y="620.336" width="1.018" height="0.994" style="fill:white;fill-opacity:0.3;"/>
                    </g>
                    <g transform="matrix(0.982094,0,0,0.982094,-1213.7,-323.895)">
                        <rect x="3450.98" y="620.336" width="1.018" height="0.994" style="fill:white;fill-opacity:0.3;"/>
                    </g>
                    <g transform="matrix(0.982094,0,0,0.982094,-1202.7,-334.798)">
                        <rect x="3450.98" y="620.336" width="1.018" height="0.994" style="fill:white;fill-opacity:0.3;"/>
                    </g>
                    <g transform="matrix(0.982094,0,0,0.982094,-1202.7,-323.895)">
                        <rect x="3450.98" y="620.336" width="1.018" height="0.994" style="fill:white;fill-opacity:0.3;"/>
                    </g>
                    <g transform="matrix(0.982094,0,0,0.982094,-1213.7,-312.967)">
                        <rect x="3450.98" y="620.336" width="1.018" height="0.994" style="fill:white;fill-opacity:0.3;"/>
                    </g>
                    <g transform="matrix(0.982094,0,0,0.982094,-1213.7,-302.064)">
                        <rect x="3450.98" y="620.336" width="1.018" height="0.994" style="fill:white;fill-opacity:0.3;"/>
                    </g>
                    <g transform="matrix(0.982094,0,0,0.982094,-1202.7,-312.967)">
                        <rect x="3450.98" y="620.336" width="1.018" height="0.994" style="fill:white;fill-opacity:0.3;"/>
                    </g>
                    <g transform="matrix(0.982094,0,0,0.982094,-1202.7,-302.064)">
                        <rect x="3450.98" y="620.336" width="1.018" height="0.994" style="fill:white;fill-opacity:0.3;"/>
                    </g>
                    <g transform="matrix(0.982094,0,0,0.982094,-1213.7,-291.136)">
                        <rect x="3450.98" y="620.336" width="1.018" height="0.994" style="fill:white;fill-opacity:0.3;"/>
                    </g>
                    <g transform="matrix(0.982094,0,0,0.982094,-1213.7,-280.233)">
                        <rect x="3450.98" y="620.336" width="1.018" height="0.994" style="fill:white;fill-opacity:0.3;"/>
                    </g>
                    <g transform="matrix(0.982094,0,0,0.982094,-1202.7,-291.136)">
                        <rect x="3450.98" y="620.336" width="1.018" height="0.994" style="fill:white;fill-opacity:0.3;"/>
                    </g>
                    <g transform="matrix(0.982094,0,0,0.982094,-1202.7,-280.233)">
                        <rect x="3450.98" y="620.336" width="1.018" height="0.994" style="fill:white;fill-opacity:0.3;"/>
                    </g>
                    <g transform="matrix(0.982094,0,0,0.982094,-1191.7,-334.798)">
                        <rect x="3450.98" y="620.336" width="1.018" height="0.994" style="fill:white;fill-opacity:0.3;"/>
                    </g>
                    <g transform="matrix(0.982094,0,0,0.982094,-1191.7,-323.895)">
                        <rect x="3450.98" y="620.336" width="1.018" height="0.994" style="fill:white;fill-opacity:0.3;"/>
                    </g>
                    <g transform="matrix(0.982094,0,0,0.982094,-1180.7,-334.798)">
                        <rect x="3450.98" y="620.336" width="1.018" height="0.994" style="fill:white;fill-opacity:0.3;"/>
                    </g>
                    <g transform="matrix(0.982094,0,0,0.982094,-1180.7,-323.895)">
                        <rect x="3450.98" y="620.336" width="1.018" height="0.994" style="fill:white;fill-opacity:0.3;"/>
                    </g>
                    <g transform="matrix(0.982094,0,0,0.982094,-1191.7,-312.967)">
                        <rect x="3450.98" y="620.336" width="1.018" height="0.994" style="fill:white;fill-opacity:0.3;"/>
                    </g>
                    <g transform="matrix(0.982094,0,0,0.982094,-1191.7,-302.064)">
                        <rect x="3450.98" y="620.336" width="1.018" height="0.994" style="fill:white;fill-opacity:0.3;"/>
                    </g>
                    <g transform="matrix(0.982094,0,0,0.982094,-1180.7,-312.967)">
                        <rect x="3450.98" y="620.336" width="1.018" height="0.994" style="fill:white;fill-opacity:0.3;"/>
                    </g>
                    <g transform="matrix(0.982094,0,0,0.982094,-1180.7,-302.064)">
                        <rect x="3450.98" y="620.336" width="1.018" height="0.994" style="fill:white;fill-opacity:0.3;"/>
                    </g>
                    <g transform="matrix(0.982094,0,0,0.982094,-1191.7,-291.136)">
                        <rect x="3450.98" y="620.336" width="1.018" height="0.994" style="fill:white;fill-opacity:0.3;"/>
                    </g>
                    <g transform="matrix(0.982094,0,0,0.982094,-1191.7,-280.233)">
                        <rect x="3450.98" y="620.336" width="1.018" height="0.994" style="fill:white;fill-opacity:0.3;"/>
                    </g>
                    <g transform="matrix(0.982094,0,0,0.982094,-1180.7,-291.136)">
                        <rect x="3450.98" y="620.336" width="1.018" height="0.994" style="fill:white;fill-opacity:0.3;"/>
                    </g>
                    <g transform="matrix(0.982094,0,0,0.982094,-1180.7,-280.233)">
                        <rect x="3450.98" y="620.336" width="1.018" height="0.994" style="fill:white;fill-opacity:0.3;"/>
                    </g>
                </g>
                <g transform="matrix(1,0,0,1,1,0.975853)">
                    <g transform="matrix(0.982094,0,0,0.982094,-1235.7,-334.798)">
                        <rect x="3450.98" y="620.336" width="1.018" height="0.994" style="fill:white;fill-opacity:0.3;"/>
                    </g>
                    <g transform="matrix(0.982094,0,0,0.982094,-1235.7,-323.895)">
                        <rect x="3450.98" y="620.336" width="1.018" height="0.994" style="fill:white;fill-opacity:0.3;"/>
                    </g>
                    <g transform="matrix(0.982094,0,0,0.982094,-1224.7,-334.798)">
                        <rect x="3450.98" y="620.336" width="1.018" height="0.994" style="fill:white;fill-opacity:0.3;"/>
                    </g>
                    <g transform="matrix(0.982094,0,0,0.982094,-1224.7,-323.895)">
                        <rect x="3450.98" y="620.336" width="1.018" height="0.994" style="fill:white;fill-opacity:0.3;"/>
                    </g>
                    <g transform="matrix(0.982094,0,0,0.982094,-1235.7,-312.967)">
                        <rect x="3450.98" y="620.336" width="1.018" height="0.994" style="fill:white;fill-opacity:0.3;"/>
                    </g>
                    <g transform="matrix(0.982094,0,0,0.982094,-1235.7,-302.064)">
                        <rect x="3450.98" y="620.336" width="1.018" height="0.994" style="fill:white;fill-opacity:0.3;"/>
                    </g>
                    <g transform="matrix(0.982094,0,0,0.982094,-1224.7,-312.967)">
                        <rect x="3450.98" y="620.336" width="1.018" height="0.994" style="fill:white;fill-opacity:0.3;"/>
                    </g>
                    <g transform="matrix(0.982094,0,0,0.982094,-1224.7,-302.064)">
                        <rect x="3450.98" y="620.336" width="1.018" height="0.994" style="fill:white;fill-opacity:0.3;"/>
                    </g>
                    <g transform="matrix(0.982094,0,0,0.982094,-1235.7,-291.136)">
                        <rect x="3450.98" y="620.336" width="1.018" height="0.994" style="fill:white;fill-opacity:0.3;"/>
                    </g>
                    <g transform="matrix(0.982094,0,0,0.982094,-1235.7,-280.233)">
                        <rect x="3450.98" y="620.336" width="1.018" height="0.994" style="fill:white;fill-opacity:0.3;"/>
                    </g>
                    <g transform="matrix(0.982094,0,0,0.982094,-1224.7,-291.136)">
                        <rect x="3450.98" y="620.336" width="1.018" height="0.994" style="fill:white;fill-opacity:0.3;"/>
                    </g>
                    <g transform="matrix(0.982094,0,0,0.982094,-1224.7,-280.233)">
                        <rect x="3450.98" y="620.336" width="1.018" height="0.994" style="fill:white;fill-opacity:0.3;"/>
                    </g>
                    <g transform="matrix(0.982094,0,0,0.982094,-1213.7,-334.798)">
                        <rect x="3450.98" y="620.336" width="1.018" height="0.994" style="fill:white;fill-opacity:0.3;"/>
                    </g>
                    <g transform="matrix(0.982094,0,0,0.982094,-1213.7,-323.895)">
                        <rect x="3450.98" y="620.336" width="1.018" height="0.994" style="fill:white;fill-opacity:0.3;"/>
                    </g>
                    <g transform="matrix(0.982094,0,0,0.982094,-1202.7,-334.798)">
                        <rect x="3450.98" y="620.336" width="1.018" height="0.994" style="fill:white;fill-opacity:0.3;"/>
                    </g>
                    <g transform="matrix(0.982094,0,0,0.982094,-1202.7,-323.895)">
                        <rect x="3450.98" y="620.336" width="1.018" height="0.994" style="fill:white;fill-opacity:0.3;"/>
                    </g>
                    <g transform="matrix(0.982094,0,0,0.982094,-1213.7,-312.967)">
                        <rect x="3450.98" y="620.336" width="1.018" height="0.994" style="fill:white;fill-opacity:0.3;"/>
                    </g>
                    <g transform="matrix(0.982094,0,0,0.982094,-1213.7,-302.064)">
                        <rect x="3450.98" y="620.336" width="1.018" height="0.994" style="fill:white;fill-opacity:0.3;"/>
                    </g>
                    <g transform="matrix(0.982094,0,0,0.982094,-1202.7,-312.967)">
                        <rect x="3450.98" y="620.336" width="1.018" height="0.994" style="fill:white;fill-opacity:0.3;"/>
                    </g>
                    <g transform="matrix(0.982094,0,0,0.982094,-1202.7,-302.064)">
                        <rect x="3450.98" y="620.336" width="1.018" height="0.994" style="fill:white;fill-opacity:0.3;"/>
                    </g>
                    <g transform="matrix(0.982094,0,0,0.982094,-1213.7,-291.136)">
                        <rect x="3450.98" y="620.336" width="1.018" height="0.994" style="fill:white;fill-opacity:0.3;"/>
                    </g>
                    <g transform="matrix(0.982094,0,0,0.982094,-1213.7,-280.233)">
                        <rect x="3450.98" y="620.336" width="1.018" height="0.994" style="fill:white;fill-opacity:0.3;"/>
                    </g>
                    <g transform="matrix(0.982094,0,0,0.982094,-1202.7,-291.136)">
                        <rect x="3450.98" y="620.336" width="1.018" height="0.994" style="fill:white;fill-opacity:0.3;"/>
                    </g>
                    <g transform="matrix(0.982094,0,0,0.982094,-1202.7,-280.233)">
                        <rect x="3450.98" y="620.336" width="1.018" height="0.994" style="fill:white;fill-opacity:0.3;"/>
                    </g>
                    <g transform="matrix(0.982094,0,0,0.982094,-1191.7,-334.798)">
                        <rect x="3450.98" y="620.336" width="1.018" height="0.994" style="fill:white;fill-opacity:0.3;"/>
                    </g>
                    <g transform="matrix(0.982094,0,0,0.982094,-1191.7,-323.895)">
                        <rect x="3450.98" y="620.336" width="1.018" height="0.994" style="fill:white;fill-opacity:0.3;"/>
                    </g>
                    <g transform="matrix(0.982094,0,0,0.982094,-1180.7,-334.798)">
                        <rect x="3450.98" y="620.336" width="1.018" height="0.994" style="fill:white;fill-opacity:0.3;"/>
                    </g>
                    <g transform="matrix(0.982094,0,0,0.982094,-1180.7,-323.895)">
                        <rect x="3450.98" y="620.336" width="1.018" height="0.994" style="fill:white;fill-opacity:0.3;"/>
                    </g>
                    <g transform="matrix(0.982094,0,0,0.982094,-1191.7,-312.967)">
                        <rect x="3450.98" y="620.336" width="1.018" height="0.994" style="fill:white;fill-opacity:0.3;"/>
                    </g>
                    <g transform="matrix(0.982094,0,0,0.982094,-1191.7,-302.064)">
                        <rect x="3450.98" y="620.336" width="1.018" height="0.994" style="fill:white;fill-opacity:0.3;"/>
                    </g>
                    <g transform="matrix(0.982094,0,0,0.982094,-1180.7,-312.967)">
                        <rect x="3450.98" y="620.336" width="1.018" height="0.994" style="fill:white;fill-opacity:0.3;"/>
                    </g>
                    <g transform="matrix(0.982094,0,0,0.982094,-1180.7,-302.064)">
                        <rect x="3450.98" y="620.336" width="1.018" height="0.994" style="fill:white;fill-opacity:0.3;"/>
                    </g>
                    <g transform="matrix(0.982094,0,0,0.982094,-1191.7,-291.136)">
                        <rect x="3450.98" y="620.336" width="1.018" height="0.994" style="fill:white;fill-opacity:0.3;"/>
                    </g>
                    <g transform="matrix(0.982094,0,0,0.982094,-1191.7,-280.233)">
                        <rect x="3450.98" y="620.336" width="1.018" height="0.994" style="fill:white;fill-opacity:0.3;"/>
                    </g>
                    <g transform="matrix(0.982094,0,0,0.982094,-1180.7,-291.136)">
                        <rect x="3450.98" y="620.336" width="1.018" height="0.994" style="fill:white;fill-opacity:0.3;"/>
                    </g>
                    <g transform="matrix(0.982094,0,0,0.982094,-1180.7,-280.233)">
                        <rect x="3450.98" y="620.336" width="1.018" height="0.994" style="fill:white;fill-opacity:0.3;"/>
                    </g>
                </g>
                <g transform="matrix(0.982094,0,0,0.982094,-1235.7,-322.919)">
                    <rect x="3450.98" y="620.336" width="1.018" height="0.994" style="fill:white;"/>
                </g>
                <g transform="matrix(0.982094,0,0,0.982094,-1224.7,-333.822)">
                    <rect x="3450.98" y="620.336" width="1.018" height="0.994" style="fill:white;"/>
                </g>
                <g transform="matrix(0.982094,0,0,0.982094,-1224.7,-322.919)">
                    <rect x="3450.98" y="620.336" width="1.018" height="0.994" style="fill:white;"/>
                </g>
            </g>
            <g transform="matrix(1,0,0,1,-91.5133,113.758)">
                <g transform="matrix(0.122102,-1.04074e-34,0,0.443301,1746.82,197.616)">
                    <rect x="3289.62" y="164.253" width="180.178" height="49.246" style="fill:none;"/>
                </g>
                <g transform="matrix(0.982094,0,0,0.982094,-1235.7,-333.822)">
                    <rect x="3450.98" y="620.336" width="1.018" height="0.994" style="fill:white;"/>
                </g>
                <g transform="matrix(0.982094,0,0,0.982094,-1235.7,-322.919)">
                    <rect x="3450.98" y="620.336" width="1.018" height="0.994" style="fill:white;"/>
                </g>
                <g transform="matrix(0.982094,0,0,0.982094,-1224.7,-333.822)">
                    <rect x="3450.98" y="620.336" width="1.018" height="0.994" style="fill:white;"/>
                </g>
                <g transform="matrix(0.982094,0,0,0.982094,-1224.7,-322.919)">
                    <rect x="3450.98" y="620.336" width="1.018" height="0.994" style="fill:white;"/>
                </g>
            </g>
            <g transform="matrix(1,0,0,1,-91.5133,135.588)">
                <g transform="matrix(0.122102,-1.04074e-34,0,0.443301,1746.82,197.616)">
                    <rect x="3289.62" y="164.253" width="180.178" height="49.246" style="fill:none;"/>
                </g>
                <g transform="matrix(0.982094,0,0,0.982094,-1235.7,-333.822)">
                    <rect x="3450.98" y="620.336" width="1.018" height="0.994" style="fill:white;"/>
                </g>
                <g transform="matrix(0.982094,0,0,0.982094,-1235.7,-322.919)">
                    <rect x="3450.98" y="620.336" width="1.018" height="0.994" style="fill:white;"/>
                </g>
                <g transform="matrix(0.982094,0,0,0.982094,-1224.7,-333.822)">
                    <rect x="3450.98" y="620.336" width="1.018" height="0.994" style="fill:white;"/>
                </g>
                <g transform="matrix(0.982094,0,0,0.982094,-1224.7,-322.919)">
                    <rect x="3450.98" y="620.336" width="1.018" height="0.994" style="fill:white;"/>
                </g>
            </g>
            <g transform="matrix(1,0,0,1,-69.5133,91.9265)">
                <g transform="matrix(0.122102,-1.04074e-34,0,0.443301,1746.82,197.616)">
                    <rect x="3289.62" y="164.253" width="180.178" height="49.246" style="fill:none;"/>
                </g>
                <g transform="matrix(0.982094,0,0,0.982094,-1235.7,-333.822)">
                    <rect x="3450.98" y="620.336" width="1.018" height="0.994" style="fill:white;"/>
                </g>
                <g transform="matrix(0.982094,0,0,0.982094,-1235.7,-322.919)">
                    <rect x="3450.98" y="620.336" width="1.018" height="0.994" style="fill:white;"/>
                </g>
                <g transform="matrix(0.982094,0,0,0.982094,-1224.7,-333.822)">
                    <rect x="3450.98" y="620.336" width="1.018" height="0.994" style="fill:white;"/>
                </g>
                <g transform="matrix(0.982094,0,0,0.982094,-1224.7,-322.919)">
                    <rect x="3450.98" y="620.336" width="1.018" height="0.994" style="fill:white;"/>
                </g>
            </g>
            <g transform="matrix(1,0,0,1,-69.5133,113.758)">
                <g transform="matrix(0.122102,-1.04074e-34,0,0.443301,1746.82,197.616)">
                    <rect x="3289.62" y="164.253" width="180.178" height="49.246" style="fill:none;"/>
                </g>
                <g transform="matrix(0.982094,0,0,0.982094,-1235.7,-333.822)">
                    <rect x="3450.98" y="620.336" width="1.018" height="0.994" style="fill:white;"/>
                </g>
                <g transform="matrix(0.982094,0,0,0.982094,-1235.7,-322.919)">
                    <rect x="3450.98" y="620.336" width="1.018" height="0.994" style="fill:white;"/>
                </g>
                <g transform="matrix(0.982094,0,0,0.982094,-1224.7,-333.822)">
                    <rect x="3450.98" y="620.336" width="1.018" height="0.994" style="fill:white;"/>
                </g>
                <g transform="matrix(0.982094,0,0,0.982094,-1224.7,-322.919)">
                    <rect x="3450.98" y="620.336" width="1.018" height="0.994" style="fill:white;"/>
                </g>
            </g>
            <g transform="matrix(1,0,0,1,-69.5133,135.588)">
                <g transform="matrix(0.122102,-1.04074e-34,0,0.443301,1746.82,197.616)">
                    <rect x="3289.62" y="164.253" width="180.178" height="49.246" style="fill:none;"/>
                </g>
                <g transform="matrix(0.982094,0,0,0.982094,-1235.7,-333.822)">
                    <rect x="3450.98" y="620.336" width="1.018" height="0.994" style="fill:white;"/>
                </g>
                <g transform="matrix(0.982094,0,0,0.982094,-1235.7,-322.919)">
                    <rect x="3450.98" y="620.336" width="1.018" height="0.994" style="fill:white;"/>
                </g>
                <g transform="matrix(0.982094,0,0,0.982094,-1224.7,-333.822)">
                    <rect x="3450.98" y="620.336" width="1.018" height="0.994" style="fill:white;"/>
                </g>
                <g transform="matrix(0.982094,0,0,0.982094,-1224.7,-322.919)">
                    <rect x="3450.98" y="620.336" width="1.018" height="0.994" style="fill:white;"/>
                </g>
            </g>
            <g transform="matrix(1,0,0,1,-47.5133,91.9265)">
                <g transform="matrix(0.122102,-1.04074e-34,0,0.443301,1746.82,197.616)">
                    <rect x="3289.62" y="164.253" width="180.178" height="49.246" style="fill:none;"/>
                </g>
                <g transform="matrix(0.982094,0,0,0.982094,-1235.7,-333.822)">
                    <rect x="3450.98" y="620.336" width="1.018" height="0.994" style="fill:white;"/>
                </g>
                <g transform="matrix(0.982094,0,0,0.982094,-1235.7,-322.919)">
                    <rect x="3450.98" y="620.336" width="1.018" height="0.994" style="fill:white;"/>
                </g>
                <g transform="matrix(0.982094,0,0,0.982094,-1224.7,-333.822)">
                    <rect x="3450.98" y="620.336" width="1.018" height="0.994" style="fill:white;"/>
                </g>
                <g transform="matrix(0.982094,0,0,0.982094,-1224.7,-322.919)">
                    <rect x="3450.98" y="620.336" width="1.018" height="0.994" style="fill:white;"/>
                </g>
            </g>
            <g transform="matrix(1,0,0,1,-47.5133,113.758)">
                <g transform="matrix(0.122102,-1.04074e-34,0,0.443301,1746.82,197.616)">
                    <rect x="3289.62" y="164.253" width="180.178" height="49.246" style="fill:none;"/>
                </g>
                <g transform="matrix(0.982094,0,0,0.982094,-1235.7,-333.822)">
                    <rect x="3450.98" y="620.336" width="1.018" height="0.994" style="fill:white;"/>
                </g>
                <g transform="matrix(0.982094,0,0,0.982094,-1235.7,-322.919)">
                    <rect x="3450.98" y="620.336" width="1.018" height="0.994" style="fill:white;"/>
                </g>
                <g transform="matrix(0.982094,0,0,0.982094,-1224.7,-333.822)">
                    <rect x="3450.98" y="620.336" width="1.018" height="0.994" style="fill:white;"/>
                </g>
                <g transform="matrix(0.982094,0,0,0.982094,-1224.7,-322.919)">
                    <rect x="3450.98" y="620.336" width="1.018" height="0.994" style="fill:white;"/>
                </g>
            </g>
            <g transform="matrix(1,0,0,1,-47.5133,135.588)">
                <g transform="matrix(0.122102,-1.04074e-34,0,0.443301,1746.82,197.616)">
                    <rect x="3289.62" y="164.253" width="180.178" height="49.246" style="fill:none;"/>
                </g>
                <g transform="matrix(0.982094,0,0,0.982094,-1235.7,-333.822)">
                    <rect x="3450.98" y="620.336" width="1.018" height="0.994" style="fill:white;"/>
                </g>
                <g transform="matrix(0.982094,0,0,0.982094,-1235.7,-322.919)">
                    <rect x="3450.98" y="620.336" width="1.018" height="0.994" style="fill:white;"/>
                </g>
                <g transform="matrix(0.982094,0,0,0.982094,-1224.7,-333.822)">
                    <rect x="3450.98" y="620.336" width="1.018" height="0.994" style="fill:white;"/>
                </g>
                <g transform="matrix(0.982094,0,0,0.982094,-1224.7,-322.919)">
                    <rect x="3450.98" y="620.336" width="1.018" height="0.994" style="fill:white;"/>
                </g>
            </g>
        </g>
    </g>
</svg>
