<?xml version="1.0" encoding="UTF-8" standalone="no"?>
<!DOCTYPE svg PUBLIC "-//W3C//DTD SVG 1.1//EN" "http://www.w3.org/Graphics/SVG/1.1/DTD/svg11.dtd">
<svg width="100%" height="100%" viewBox="0 0 67 66" version="1.1" xmlns="http://www.w3.org/2000/svg" xmlns:xlink="http://www.w3.org/1999/xlink" xml:space="preserve" xmlns:serif="http://www.serif.com/" style="fill-rule:evenodd;clip-rule:evenodd;stroke-linejoin:round;stroke-miterlimit:2;">
    <g transform="matrix(1,0,0,1,-2238.4,-269.325)">
        <g>
            <g transform="matrix(0.350308,-0.000538386,0.00195784,1.27389,1085.7,61.9568)">
                <rect x="3289.62" y="164.253" width="188.368" height="51.502" style="fill:none;"/>
            </g>
            <g transform="matrix(0.982094,5.55112e-17,-5.55112e-17,0.982094,-1147.77,-332.867)">
                <rect x="3450.98" y="620.336" width="1.018" height="0.994" style="fill:white;"/>
            </g>
            <g transform="matrix(0.982094,5.55112e-17,-5.55112e-17,0.982094,-1147.77,-321.948)">
                <rect x="3450.98" y="620.336" width="1.018" height="0.994" style="fill:white;"/>
            </g>
            <g transform="matrix(0.982094,5.55112e-17,-5.55112e-17,0.982094,-1147.77,-311.028)">
                <rect x="3450.98" y="620.336" width="1.018" height="0.994" style="fill:white;"/>
            </g>
            <g transform="matrix(0.982094,5.55112e-17,-5.55112e-17,0.982094,-1147.77,-300.109)">
                <rect x="3450.98" y="620.336" width="1.018" height="0.994" style="fill:white;"/>
            </g>
            <g transform="matrix(0.982094,5.55112e-17,-5.55112e-17,0.982094,-1147.77,-289.189)">
                <rect x="3450.98" y="620.336" width="1.018" height="0.994" style="fill:white;"/>
            </g>
            <g transform="matrix(0.982094,5.55112e-17,-5.55112e-17,0.982094,-1147.77,-278.27)">
                <rect x="3450.98" y="620.336" width="1.018" height="0.994" style="fill:white;"/>
            </g>
            <g transform="matrix(0.982094,5.55112e-17,-5.55112e-17,0.982094,-1114.75,-332.867)">
                <rect x="3450.98" y="620.336" width="1.018" height="0.994" style="fill:white;"/>
            </g>
            <g transform="matrix(0.982094,5.55112e-17,-5.55112e-17,0.982094,-1114.75,-321.948)">
                <rect x="3450.98" y="620.336" width="1.018" height="0.994" style="fill:white;"/>
            </g>
            <g transform="matrix(0.982094,5.55112e-17,-5.55112e-17,0.982094,-1114.75,-311.028)">
                <rect x="3450.98" y="620.336" width="1.018" height="0.994" style="fill:white;"/>
            </g>
            <g transform="matrix(0.982094,5.55112e-17,-5.55112e-17,0.982094,-1114.75,-300.109)">
                <rect x="3450.98" y="620.336" width="1.018" height="0.994" style="fill:white;"/>
            </g>
            <g transform="matrix(0.982094,5.55112e-17,-5.55112e-17,0.982094,-1114.75,-289.189)">
                <rect x="3450.98" y="620.336" width="1.018" height="0.994" style="fill:white;"/>
            </g>
            <g transform="matrix(0.982094,5.55112e-17,-5.55112e-17,0.982094,-1114.75,-278.27)">
                <rect x="3450.98" y="620.336" width="1.018" height="0.994" style="fill:white;"/>
            </g>
            <g transform="matrix(0.982094,5.55112e-17,-5.55112e-17,0.982094,-1136.75,-332.867)">
                <rect x="3450.98" y="620.336" width="1.018" height="0.994" style="fill:white;"/>
            </g>
            <g transform="matrix(0.982094,5.55112e-17,-5.55112e-17,0.982094,-1136.75,-321.948)">
                <rect x="3450.98" y="620.336" width="1.018" height="0.994" style="fill:white;"/>
            </g>
            <g transform="matrix(0.982094,5.55112e-17,-5.55112e-17,0.982094,-1136.75,-311.028)">
                <rect x="3450.98" y="620.336" width="1.018" height="0.994" style="fill:white;"/>
            </g>
            <g transform="matrix(0.982094,5.55112e-17,-5.55112e-17,0.982094,-1136.75,-300.109)">
                <rect x="3450.98" y="620.336" width="1.018" height="0.994" style="fill:white;"/>
            </g>
            <g transform="matrix(0.982094,5.55112e-17,-5.55112e-17,0.982094,-1136.75,-289.189)">
                <rect x="3450.98" y="620.336" width="1.018" height="0.994" style="fill:white;"/>
            </g>
            <g transform="matrix(0.982094,5.55112e-17,-5.55112e-17,0.982094,-1136.75,-278.27)">
                <rect x="3450.98" y="620.336" width="1.018" height="0.994" style="fill:white;"/>
            </g>
            <g transform="matrix(0.982094,5.55112e-17,-5.55112e-17,0.982094,-1103.74,-332.867)">
                <rect x="3450.98" y="620.336" width="1.018" height="0.994" style="fill:white;"/>
            </g>
            <g transform="matrix(0.982094,5.55112e-17,-5.55112e-17,0.982094,-1103.74,-321.948)">
                <rect x="3450.98" y="620.336" width="1.018" height="0.994" style="fill:white;"/>
            </g>
            <g transform="matrix(0.982094,5.55112e-17,-5.55112e-17,0.982094,-1103.74,-311.028)">
                <rect x="3450.98" y="620.336" width="1.018" height="0.994" style="fill:white;"/>
            </g>
            <g transform="matrix(0.982094,5.55112e-17,-5.55112e-17,0.982094,-1103.74,-300.109)">
                <rect x="3450.98" y="620.336" width="1.018" height="0.994" style="fill:white;"/>
            </g>
            <g transform="matrix(0.982094,5.55112e-17,-5.55112e-17,0.982094,-1103.74,-289.189)">
                <rect x="3450.98" y="620.336" width="1.018" height="0.994" style="fill:white;"/>
            </g>
            <g transform="matrix(0.982094,5.55112e-17,-5.55112e-17,0.982094,-1103.74,-278.27)">
                <rect x="3450.98" y="620.336" width="1.018" height="0.994" style="fill:white;"/>
            </g>
            <g transform="matrix(0.982094,5.55112e-17,-5.55112e-17,0.982094,-1125.74,-332.867)">
                <rect x="3450.98" y="620.336" width="1.018" height="0.994" style="fill:white;"/>
            </g>
            <g transform="matrix(0.982094,5.55112e-17,-5.55112e-17,0.982094,-1125.74,-321.948)">
                <rect x="3450.98" y="620.336" width="1.018" height="0.994" style="fill:white;"/>
            </g>
            <g transform="matrix(0.982094,5.55112e-17,-5.55112e-17,0.982094,-1125.74,-311.028)">
                <rect x="3450.98" y="620.336" width="1.018" height="0.994" style="fill:white;"/>
            </g>
            <g transform="matrix(0.982094,5.55112e-17,-5.55112e-17,0.982094,-1125.74,-300.109)">
                <rect x="3450.98" y="620.336" width="1.018" height="0.994" style="fill:white;"/>
            </g>
            <g transform="matrix(0.982094,5.55112e-17,-5.55112e-17,0.982094,-1125.74,-289.189)">
                <rect x="3450.98" y="620.336" width="1.018" height="0.994" style="fill:white;"/>
            </g>
            <g transform="matrix(0.982094,5.55112e-17,-5.55112e-17,0.982094,-1125.74,-278.27)">
                <rect x="3450.98" y="620.336" width="1.018" height="0.994" style="fill:white;"/>
            </g>
            <g transform="matrix(0.982094,5.55112e-17,-5.55112e-17,0.982094,-1092.72,-332.867)">
                <rect x="3450.98" y="620.336" width="1.018" height="0.994" style="fill:white;"/>
            </g>
            <g transform="matrix(0.982094,5.55112e-17,-5.55112e-17,0.982094,-1092.72,-321.948)">
                <rect x="3450.98" y="620.336" width="1.018" height="0.994" style="fill:white;"/>
            </g>
            <g transform="matrix(0.982094,5.55112e-17,-5.55112e-17,0.982094,-1092.72,-311.028)">
                <rect x="3450.98" y="620.336" width="1.018" height="0.994" style="fill:white;"/>
            </g>
            <g transform="matrix(0.982094,5.55112e-17,-5.55112e-17,0.982094,-1092.72,-300.109)">
                <rect x="3450.98" y="620.336" width="1.018" height="0.994" style="fill:white;"/>
            </g>
            <g transform="matrix(0.982094,5.55112e-17,-5.55112e-17,0.982094,-1092.72,-289.189)">
                <rect x="3450.98" y="620.336" width="1.018" height="0.994" style="fill:white;"/>
            </g>
            <g transform="matrix(0.982094,5.55112e-17,-5.55112e-17,0.982094,-1092.72,-278.27)">
                <rect x="3450.98" y="620.336" width="1.018" height="0.994" style="fill:white;"/>
            </g>
            <g transform="matrix(0.982094,5.55112e-17,-5.55112e-17,0.982094,-1143.77,-336.819)">
                <rect x="3450.98" y="620.336" width="1.018" height="0.994" style="fill:white;"/>
            </g>
            <g transform="matrix(0.982094,5.55112e-17,-5.55112e-17,0.982094,-1143.77,-325.899)">
                <rect x="3450.98" y="620.336" width="1.018" height="0.994" style="fill:white;"/>
            </g>
            <g transform="matrix(0.982094,5.55112e-17,-5.55112e-17,0.982094,-1143.77,-314.98)">
                <rect x="3450.98" y="620.336" width="1.018" height="0.994" style="fill:white;"/>
            </g>
            <g transform="matrix(0.982094,5.55112e-17,-5.55112e-17,0.982094,-1143.77,-304.06)">
                <rect x="3450.98" y="620.336" width="1.018" height="0.994" style="fill:white;"/>
            </g>
            <g transform="matrix(0.982094,5.55112e-17,-5.55112e-17,0.982094,-1143.77,-293.141)">
                <rect x="3450.98" y="620.336" width="1.018" height="0.994" style="fill:white;"/>
            </g>
            <g transform="matrix(0.982094,5.55112e-17,-5.55112e-17,0.982094,-1143.77,-282.221)">
                <rect x="3450.98" y="620.336" width="1.018" height="0.994" style="fill:white;"/>
            </g>
            <g transform="matrix(0.982094,5.55112e-17,-5.55112e-17,0.982094,-1110.75,-336.819)">
                <rect x="3450.98" y="620.336" width="1.018" height="0.994" style="fill:white;"/>
            </g>
            <g transform="matrix(0.982094,5.55112e-17,-5.55112e-17,0.982094,-1110.75,-325.899)">
                <rect x="3450.98" y="620.336" width="1.018" height="0.994" style="fill:white;"/>
            </g>
            <g transform="matrix(0.982094,5.55112e-17,-5.55112e-17,0.982094,-1110.75,-314.98)">
                <rect x="3450.98" y="620.336" width="1.018" height="0.994" style="fill:white;"/>
            </g>
            <g transform="matrix(0.982094,5.55112e-17,-5.55112e-17,0.982094,-1110.75,-304.06)">
                <rect x="3450.98" y="620.336" width="1.018" height="0.994" style="fill:white;"/>
            </g>
            <g transform="matrix(0.982094,5.55112e-17,-5.55112e-17,0.982094,-1110.75,-293.141)">
                <rect x="3450.98" y="620.336" width="1.018" height="0.994" style="fill:white;"/>
            </g>
            <g transform="matrix(0.982094,5.55112e-17,-5.55112e-17,0.982094,-1110.75,-282.221)">
                <rect x="3450.98" y="620.336" width="1.018" height="0.994" style="fill:white;"/>
            </g>
            <g transform="matrix(0.982094,5.55112e-17,-5.55112e-17,0.982094,-1132.75,-336.819)">
                <rect x="3450.98" y="620.336" width="1.018" height="0.994" style="fill:white;"/>
            </g>
            <g transform="matrix(0.982094,5.55112e-17,-5.55112e-17,0.982094,-1132.75,-325.899)">
                <rect x="3450.98" y="620.336" width="1.018" height="0.994" style="fill:white;"/>
            </g>
            <g transform="matrix(0.982094,5.55112e-17,-5.55112e-17,0.982094,-1132.75,-314.98)">
                <rect x="3450.98" y="620.336" width="1.018" height="0.994" style="fill:white;"/>
            </g>
            <g transform="matrix(0.982094,5.55112e-17,-5.55112e-17,0.982094,-1132.75,-304.06)">
                <rect x="3450.98" y="620.336" width="1.018" height="0.994" style="fill:white;"/>
            </g>
            <g transform="matrix(0.982094,5.55112e-17,-5.55112e-17,0.982094,-1132.75,-293.141)">
                <rect x="3450.98" y="620.336" width="1.018" height="0.994" style="fill:white;"/>
            </g>
            <g transform="matrix(0.982094,5.55112e-17,-5.55112e-17,0.982094,-1132.75,-282.221)">
                <rect x="3450.98" y="620.336" width="1.018" height="0.994" style="fill:white;"/>
            </g>
            <g transform="matrix(0.982094,5.55112e-17,-5.55112e-17,0.982094,-1099.74,-336.819)">
                <rect x="3450.98" y="620.336" width="1.018" height="0.994" style="fill:white;"/>
            </g>
            <g transform="matrix(0.982094,5.55112e-17,-5.55112e-17,0.982094,-1099.74,-325.899)">
                <rect x="3450.98" y="620.336" width="1.018" height="0.994" style="fill:white;"/>
            </g>
            <g transform="matrix(0.982094,5.55112e-17,-5.55112e-17,0.982094,-1099.74,-314.98)">
                <rect x="3450.98" y="620.336" width="1.018" height="0.994" style="fill:white;"/>
            </g>
            <g transform="matrix(0.982094,5.55112e-17,-5.55112e-17,0.982094,-1099.74,-304.06)">
                <rect x="3450.98" y="620.336" width="1.018" height="0.994" style="fill:white;"/>
            </g>
            <g transform="matrix(0.982094,5.55112e-17,-5.55112e-17,0.982094,-1099.74,-293.141)">
                <rect x="3450.98" y="620.336" width="1.018" height="0.994" style="fill:white;"/>
            </g>
            <g transform="matrix(0.982094,5.55112e-17,-5.55112e-17,0.982094,-1099.74,-282.221)">
                <rect x="3450.98" y="620.336" width="1.018" height="0.994" style="fill:white;"/>
            </g>
            <g transform="matrix(0.982094,5.55112e-17,-5.55112e-17,0.982094,-1121.74,-336.819)">
                <rect x="3450.98" y="620.336" width="1.018" height="0.994" style="fill:white;"/>
            </g>
            <g transform="matrix(0.982094,5.55112e-17,-5.55112e-17,0.982094,-1121.74,-325.899)">
                <rect x="3450.98" y="620.336" width="1.018" height="0.994" style="fill:white;"/>
            </g>
            <g transform="matrix(0.982094,5.55112e-17,-5.55112e-17,0.982094,-1121.74,-314.98)">
                <rect x="3450.98" y="620.336" width="1.018" height="0.994" style="fill:white;"/>
            </g>
            <g transform="matrix(0.982094,5.55112e-17,-5.55112e-17,0.982094,-1121.74,-304.06)">
                <rect x="3450.98" y="620.336" width="1.018" height="0.994" style="fill:white;"/>
            </g>
            <g transform="matrix(0.982094,5.55112e-17,-5.55112e-17,0.982094,-1121.74,-293.141)">
                <rect x="3450.98" y="620.336" width="1.018" height="0.994" style="fill:white;"/>
            </g>
            <g transform="matrix(0.982094,5.55112e-17,-5.55112e-17,0.982094,-1121.74,-282.221)">
                <rect x="3450.98" y="620.336" width="1.018" height="0.994" style="fill:white;"/>
            </g>
            <g transform="matrix(0.982094,5.55112e-17,-5.55112e-17,0.982094,-1088.72,-336.819)">
                <rect x="3450.98" y="620.336" width="1.018" height="0.994" style="fill:white;"/>
            </g>
            <g transform="matrix(0.982094,5.55112e-17,-5.55112e-17,0.982094,-1088.72,-325.899)">
                <rect x="3450.98" y="620.336" width="1.018" height="0.994" style="fill:white;"/>
            </g>
            <g transform="matrix(0.982094,5.55112e-17,-5.55112e-17,0.982094,-1088.72,-314.98)">
                <rect x="3450.98" y="620.336" width="1.018" height="0.994" style="fill:white;"/>
            </g>
            <g transform="matrix(0.982094,5.55112e-17,-5.55112e-17,0.982094,-1088.72,-304.06)">
                <rect x="3450.98" y="620.336" width="1.018" height="0.994" style="fill:white;"/>
            </g>
            <g transform="matrix(0.982094,5.55112e-17,-5.55112e-17,0.982094,-1088.72,-293.141)">
                <rect x="3450.98" y="620.336" width="1.018" height="0.994" style="fill:white;"/>
            </g>
            <g transform="matrix(0.982094,5.55112e-17,-5.55112e-17,0.982094,-1088.72,-282.221)">
                <rect x="3450.98" y="620.336" width="1.018" height="0.994" style="fill:white;"/>
            </g>
            <g transform="matrix(0.982094,5.55112e-17,-5.55112e-17,0.982094,-1143.77,-332.867)">
                <rect x="3450.98" y="620.336" width="1.018" height="0.994" style="fill:white;"/>
            </g>
            <g transform="matrix(0.982094,5.55112e-17,-5.55112e-17,0.982094,-1143.77,-321.948)">
                <rect x="3450.98" y="620.336" width="1.018" height="0.994" style="fill:white;"/>
            </g>
            <g transform="matrix(0.982094,5.55112e-17,-5.55112e-17,0.982094,-1143.77,-311.028)">
                <rect x="3450.98" y="620.336" width="1.018" height="0.994" style="fill:white;"/>
            </g>
            <g transform="matrix(0.982094,5.55112e-17,-5.55112e-17,0.982094,-1143.77,-300.109)">
                <rect x="3450.98" y="620.336" width="1.018" height="0.994" style="fill:white;"/>
            </g>
            <g transform="matrix(0.982094,5.55112e-17,-5.55112e-17,0.982094,-1143.77,-289.189)">
                <rect x="3450.98" y="620.336" width="1.018" height="0.994" style="fill:white;"/>
            </g>
            <g transform="matrix(0.982094,5.55112e-17,-5.55112e-17,0.982094,-1143.77,-278.27)">
                <rect x="3450.98" y="620.336" width="1.018" height="0.994" style="fill:white;"/>
            </g>
            <g transform="matrix(0.982094,5.55112e-17,-5.55112e-17,0.982094,-1110.75,-332.867)">
                <rect x="3450.98" y="620.336" width="1.018" height="0.994" style="fill:white;"/>
            </g>
            <g transform="matrix(0.982094,5.55112e-17,-5.55112e-17,0.982094,-1110.75,-321.948)">
                <rect x="3450.98" y="620.336" width="1.018" height="0.994" style="fill:white;"/>
            </g>
            <g transform="matrix(0.982094,5.55112e-17,-5.55112e-17,0.982094,-1110.75,-311.028)">
                <rect x="3450.98" y="620.336" width="1.018" height="0.994" style="fill:white;"/>
            </g>
            <g transform="matrix(0.982094,5.55112e-17,-5.55112e-17,0.982094,-1110.75,-300.109)">
                <rect x="3450.98" y="620.336" width="1.018" height="0.994" style="fill:white;"/>
            </g>
            <g transform="matrix(0.982094,5.55112e-17,-5.55112e-17,0.982094,-1110.75,-289.189)">
                <rect x="3450.98" y="620.336" width="1.018" height="0.994" style="fill:white;"/>
            </g>
            <g transform="matrix(0.982094,5.55112e-17,-5.55112e-17,0.982094,-1110.75,-278.27)">
                <rect x="3450.98" y="620.336" width="1.018" height="0.994" style="fill:white;"/>
            </g>
            <g transform="matrix(0.982094,5.55112e-17,-5.55112e-17,0.982094,-1132.75,-332.867)">
                <rect x="3450.98" y="620.336" width="1.018" height="0.994" style="fill:white;"/>
            </g>
            <g transform="matrix(0.982094,5.55112e-17,-5.55112e-17,0.982094,-1132.75,-321.948)">
                <rect x="3450.98" y="620.336" width="1.018" height="0.994" style="fill:white;"/>
            </g>
            <g transform="matrix(0.982094,5.55112e-17,-5.55112e-17,0.982094,-1132.75,-311.028)">
                <rect x="3450.98" y="620.336" width="1.018" height="0.994" style="fill:white;"/>
            </g>
            <g transform="matrix(0.982094,5.55112e-17,-5.55112e-17,0.982094,-1132.75,-300.109)">
                <rect x="3450.98" y="620.336" width="1.018" height="0.994" style="fill:white;"/>
            </g>
            <g transform="matrix(0.982094,5.55112e-17,-5.55112e-17,0.982094,-1132.75,-289.189)">
                <rect x="3450.98" y="620.336" width="1.018" height="0.994" style="fill:white;"/>
            </g>
            <g transform="matrix(0.982094,5.55112e-17,-5.55112e-17,0.982094,-1132.75,-278.27)">
                <rect x="3450.98" y="620.336" width="1.018" height="0.994" style="fill:white;"/>
            </g>
            <g transform="matrix(0.982094,5.55112e-17,-5.55112e-17,0.982094,-1099.74,-332.867)">
                <rect x="3450.98" y="620.336" width="1.018" height="0.994" style="fill:white;"/>
            </g>
            <g transform="matrix(0.982094,5.55112e-17,-5.55112e-17,0.982094,-1099.74,-321.948)">
                <rect x="3450.98" y="620.336" width="1.018" height="0.994" style="fill:white;"/>
            </g>
            <g transform="matrix(0.982094,5.55112e-17,-5.55112e-17,0.982094,-1099.74,-311.028)">
                <rect x="3450.98" y="620.336" width="1.018" height="0.994" style="fill:white;"/>
            </g>
            <g transform="matrix(0.982094,5.55112e-17,-5.55112e-17,0.982094,-1099.74,-300.109)">
                <rect x="3450.98" y="620.336" width="1.018" height="0.994" style="fill:white;"/>
            </g>
            <g transform="matrix(0.982094,5.55112e-17,-5.55112e-17,0.982094,-1099.74,-289.189)">
                <rect x="3450.98" y="620.336" width="1.018" height="0.994" style="fill:white;"/>
            </g>
            <g transform="matrix(0.982094,5.55112e-17,-5.55112e-17,0.982094,-1099.74,-278.27)">
                <rect x="3450.98" y="620.336" width="1.018" height="0.994" style="fill:white;"/>
            </g>
            <g transform="matrix(0.982094,5.55112e-17,-5.55112e-17,0.982094,-1121.74,-332.867)">
                <rect x="3450.98" y="620.336" width="1.018" height="0.994" style="fill:white;"/>
            </g>
            <g transform="matrix(0.982094,5.55112e-17,-5.55112e-17,0.982094,-1121.74,-321.948)">
                <rect x="3450.98" y="620.336" width="1.018" height="0.994" style="fill:white;"/>
            </g>
            <g transform="matrix(0.982094,5.55112e-17,-5.55112e-17,0.982094,-1121.74,-311.028)">
                <rect x="3450.98" y="620.336" width="1.018" height="0.994" style="fill:white;"/>
            </g>
            <g transform="matrix(0.982094,5.55112e-17,-5.55112e-17,0.982094,-1121.74,-300.109)">
                <rect x="3450.98" y="620.336" width="1.018" height="0.994" style="fill:white;"/>
            </g>
            <g transform="matrix(0.982094,5.55112e-17,-5.55112e-17,0.982094,-1121.74,-289.189)">
                <rect x="3450.98" y="620.336" width="1.018" height="0.994" style="fill:white;"/>
            </g>
            <g transform="matrix(0.982094,5.55112e-17,-5.55112e-17,0.982094,-1121.74,-278.27)">
                <rect x="3450.98" y="620.336" width="1.018" height="0.994" style="fill:white;"/>
            </g>
            <g transform="matrix(0.982094,5.55112e-17,-5.55112e-17,0.982094,-1088.72,-332.867)">
                <rect x="3450.98" y="620.336" width="1.018" height="0.994" style="fill:white;"/>
            </g>
            <g transform="matrix(0.982094,5.55112e-17,-5.55112e-17,0.982094,-1088.72,-321.948)">
                <rect x="3450.98" y="620.336" width="1.018" height="0.994" style="fill:white;"/>
            </g>
            <g transform="matrix(0.982094,5.55112e-17,-5.55112e-17,0.982094,-1088.72,-311.028)">
                <rect x="3450.98" y="620.336" width="1.018" height="0.994" style="fill:white;"/>
            </g>
            <g transform="matrix(0.982094,5.55112e-17,-5.55112e-17,0.982094,-1088.72,-300.109)">
                <rect x="3450.98" y="620.336" width="1.018" height="0.994" style="fill:white;"/>
            </g>
            <g transform="matrix(0.982094,5.55112e-17,-5.55112e-17,0.982094,-1088.72,-289.189)">
                <rect x="3450.98" y="620.336" width="1.018" height="0.994" style="fill:white;"/>
            </g>
            <g transform="matrix(0.982094,5.55112e-17,-5.55112e-17,0.982094,-1088.72,-278.27)">
                <rect x="3450.98" y="620.336" width="1.018" height="0.994" style="fill:white;"/>
            </g>
            <g transform="matrix(0.982094,5.55112e-17,-5.55112e-17,0.982094,-1147.77,-336.819)">
                <rect x="3450.98" y="620.336" width="1.018" height="0.994" style="fill:white;"/>
            </g>
            <g transform="matrix(0.982094,5.55112e-17,-5.55112e-17,0.982094,-1147.77,-325.899)">
                <rect x="3450.98" y="620.336" width="1.018" height="0.994" style="fill:white;"/>
            </g>
            <g transform="matrix(0.982094,5.55112e-17,-5.55112e-17,0.982094,-1147.77,-314.98)">
                <rect x="3450.98" y="620.336" width="1.018" height="0.994" style="fill:white;"/>
            </g>
            <g transform="matrix(0.982094,5.55112e-17,-5.55112e-17,0.982094,-1147.77,-304.06)">
                <rect x="3450.98" y="620.336" width="1.018" height="0.994" style="fill:white;"/>
            </g>
            <g transform="matrix(0.982094,5.55112e-17,-5.55112e-17,0.982094,-1147.77,-293.141)">
                <rect x="3450.98" y="620.336" width="1.018" height="0.994" style="fill:white;"/>
            </g>
            <g transform="matrix(0.982094,5.55112e-17,-5.55112e-17,0.982094,-1147.77,-282.221)">
                <rect x="3450.98" y="620.336" width="1.018" height="0.994" style="fill:white;"/>
            </g>
            <g transform="matrix(0.982094,5.55112e-17,-5.55112e-17,0.982094,-1114.75,-336.819)">
                <rect x="3450.98" y="620.336" width="1.018" height="0.994" style="fill:white;"/>
            </g>
            <g transform="matrix(0.982094,5.55112e-17,-5.55112e-17,0.982094,-1114.75,-325.899)">
                <rect x="3450.98" y="620.336" width="1.018" height="0.994" style="fill:white;"/>
            </g>
            <g transform="matrix(0.982094,5.55112e-17,-5.55112e-17,0.982094,-1114.75,-314.98)">
                <rect x="3450.98" y="620.336" width="1.018" height="0.994" style="fill:white;"/>
            </g>
            <g transform="matrix(0.982094,5.55112e-17,-5.55112e-17,0.982094,-1114.75,-304.06)">
                <rect x="3450.98" y="620.336" width="1.018" height="0.994" style="fill:white;"/>
            </g>
            <g transform="matrix(0.982094,5.55112e-17,-5.55112e-17,0.982094,-1114.75,-293.141)">
                <rect x="3450.98" y="620.336" width="1.018" height="0.994" style="fill:white;"/>
            </g>
            <g transform="matrix(0.982094,5.55112e-17,-5.55112e-17,0.982094,-1114.75,-282.221)">
                <rect x="3450.98" y="620.336" width="1.018" height="0.994" style="fill:white;"/>
            </g>
            <g transform="matrix(0.982094,5.55112e-17,-5.55112e-17,0.982094,-1136.75,-336.819)">
                <rect x="3450.98" y="620.336" width="1.018" height="0.994" style="fill:white;"/>
            </g>
            <g transform="matrix(0.982094,5.55112e-17,-5.55112e-17,0.982094,-1136.75,-325.899)">
                <rect x="3450.98" y="620.336" width="1.018" height="0.994" style="fill:white;"/>
            </g>
            <g transform="matrix(0.982094,5.55112e-17,-5.55112e-17,0.982094,-1136.75,-314.98)">
                <rect x="3450.98" y="620.336" width="1.018" height="0.994" style="fill:white;"/>
            </g>
            <g transform="matrix(0.982094,5.55112e-17,-5.55112e-17,0.982094,-1136.75,-304.06)">
                <rect x="3450.98" y="620.336" width="1.018" height="0.994" style="fill:white;"/>
            </g>
            <g transform="matrix(0.982094,5.55112e-17,-5.55112e-17,0.982094,-1136.75,-293.141)">
                <rect x="3450.98" y="620.336" width="1.018" height="0.994" style="fill:white;"/>
            </g>
            <g transform="matrix(0.982094,5.55112e-17,-5.55112e-17,0.982094,-1136.75,-282.221)">
                <rect x="3450.98" y="620.336" width="1.018" height="0.994" style="fill:white;"/>
            </g>
            <g transform="matrix(0.982094,5.55112e-17,-5.55112e-17,0.982094,-1103.74,-336.819)">
                <rect x="3450.98" y="620.336" width="1.018" height="0.994" style="fill:white;"/>
            </g>
            <g transform="matrix(0.982094,5.55112e-17,-5.55112e-17,0.982094,-1103.74,-325.899)">
                <rect x="3450.98" y="620.336" width="1.018" height="0.994" style="fill:white;"/>
            </g>
            <g transform="matrix(0.982094,5.55112e-17,-5.55112e-17,0.982094,-1103.74,-314.98)">
                <rect x="3450.98" y="620.336" width="1.018" height="0.994" style="fill:white;"/>
            </g>
            <g transform="matrix(0.982094,5.55112e-17,-5.55112e-17,0.982094,-1103.74,-304.06)">
                <rect x="3450.98" y="620.336" width="1.018" height="0.994" style="fill:white;"/>
            </g>
            <g transform="matrix(0.982094,5.55112e-17,-5.55112e-17,0.982094,-1103.74,-293.141)">
                <rect x="3450.98" y="620.336" width="1.018" height="0.994" style="fill:white;"/>
            </g>
            <g transform="matrix(0.982094,5.55112e-17,-5.55112e-17,0.982094,-1103.74,-282.221)">
                <rect x="3450.98" y="620.336" width="1.018" height="0.994" style="fill:white;"/>
            </g>
            <g transform="matrix(0.982094,5.55112e-17,-5.55112e-17,0.982094,-1125.74,-336.819)">
                <rect x="3450.98" y="620.336" width="1.018" height="0.994" style="fill:white;"/>
            </g>
            <g transform="matrix(0.982094,5.55112e-17,-5.55112e-17,0.982094,-1125.74,-325.899)">
                <rect x="3450.98" y="620.336" width="1.018" height="0.994" style="fill:white;"/>
            </g>
            <g transform="matrix(0.982094,5.55112e-17,-5.55112e-17,0.982094,-1125.74,-314.98)">
                <rect x="3450.98" y="620.336" width="1.018" height="0.994" style="fill:white;"/>
            </g>
            <g transform="matrix(0.982094,5.55112e-17,-5.55112e-17,0.982094,-1125.74,-304.06)">
                <rect x="3450.98" y="620.336" width="1.018" height="0.994" style="fill:white;"/>
            </g>
            <g transform="matrix(0.982094,5.55112e-17,-5.55112e-17,0.982094,-1125.74,-293.141)">
                <rect x="3450.98" y="620.336" width="1.018" height="0.994" style="fill:white;"/>
            </g>
            <g transform="matrix(0.982094,5.55112e-17,-5.55112e-17,0.982094,-1125.74,-282.221)">
                <rect x="3450.98" y="620.336" width="1.018" height="0.994" style="fill:white;"/>
            </g>
            <g transform="matrix(0.982094,5.55112e-17,-5.55112e-17,0.982094,-1092.72,-336.819)">
                <rect x="3450.98" y="620.336" width="1.018" height="0.994" style="fill:white;"/>
            </g>
            <g transform="matrix(0.982094,5.55112e-17,-5.55112e-17,0.982094,-1092.72,-325.899)">
                <rect x="3450.98" y="620.336" width="1.018" height="0.994" style="fill:white;"/>
            </g>
            <g transform="matrix(0.982094,5.55112e-17,-5.55112e-17,0.982094,-1092.72,-314.98)">
                <rect x="3450.98" y="620.336" width="1.018" height="0.994" style="fill:white;"/>
            </g>
            <g transform="matrix(0.982094,5.55112e-17,-5.55112e-17,0.982094,-1092.72,-304.06)">
                <rect x="3450.98" y="620.336" width="1.018" height="0.994" style="fill:white;"/>
            </g>
            <g transform="matrix(0.982094,5.55112e-17,-5.55112e-17,0.982094,-1092.72,-293.141)">
                <rect x="3450.98" y="620.336" width="1.018" height="0.994" style="fill:white;"/>
            </g>
            <g transform="matrix(0.982094,5.55112e-17,-5.55112e-17,0.982094,-1092.72,-282.221)">
                <rect x="3450.98" y="620.336" width="1.018" height="0.994" style="fill:white;"/>
            </g>
        </g>
    </g>
</svg>
