<?xml version="1.0" encoding="UTF-8" standalone="no"?>
<!DOCTYPE svg PUBLIC "-//W3C//DTD SVG 1.1//EN" "http://www.w3.org/Graphics/SVG/1.1/DTD/svg11.dtd">
<svg width="100%" height="100%" viewBox="0 0 66 66" version="1.1" xmlns="http://www.w3.org/2000/svg" xmlns:xlink="http://www.w3.org/1999/xlink" xml:space="preserve" xmlns:serif="http://www.serif.com/" style="fill-rule:evenodd;clip-rule:evenodd;stroke-linejoin:round;stroke-miterlimit:2;">
    <g transform="matrix(1,0,0,1,-2056.98,-269.409)">
        <g transform="matrix(1,0,0,1,-95.4413,0)">
            <g transform="matrix(1,0,0,1,3.92796,-1.02075)">
                <g transform="matrix(0.122102,-1.04074e-34,0,0.443301,1746.82,197.616)">
                    <rect x="3289.62" y="164.253" width="180.178" height="49.246" style="fill:none;"/>
                </g>
                <g transform="matrix(0.982094,0,0,0.982094,-1235.7,-333.822)">
                    <rect x="3450.98" y="620.336" width="1.018" height="0.994" style="fill:white;"/>
                </g>
                <g transform="matrix(0.982094,0,0,0.982094,-1235.7,-322.919)">
                    <rect x="3450.98" y="620.336" width="1.018" height="0.994" style="fill:white;"/>
                </g>
                <g transform="matrix(0.982094,0,0,0.982094,-1224.7,-333.822)">
                    <rect x="3450.98" y="620.336" width="1.018" height="0.994" style="fill:white;"/>
                </g>
                <g transform="matrix(0.982094,0,0,0.982094,-1224.7,-322.919)">
                    <rect x="3450.98" y="620.336" width="1.018" height="0.994" style="fill:white;"/>
                </g>
            </g>
            <g transform="matrix(1,0,0,1,3.92796,20.8102)">
                <g transform="matrix(0.122102,-1.04074e-34,0,0.443301,1746.82,197.616)">
                    <rect x="3289.62" y="164.253" width="180.178" height="49.246" style="fill:none;"/>
                </g>
                <g transform="matrix(0.982094,0,0,0.982094,-1235.7,-333.822)">
                    <rect x="3450.98" y="620.336" width="1.018" height="0.994" style="fill:white;"/>
                </g>
                <g transform="matrix(0.982094,0,0,0.982094,-1235.7,-322.919)">
                    <rect x="3450.98" y="620.336" width="1.018" height="0.994" style="fill:white;"/>
                </g>
                <g transform="matrix(0.982094,0,0,0.982094,-1224.7,-333.822)">
                    <rect x="3450.98" y="620.336" width="1.018" height="0.994" style="fill:white;"/>
                </g>
                <g transform="matrix(0.982094,0,0,0.982094,-1224.7,-322.919)">
                    <rect x="3450.98" y="620.336" width="1.018" height="0.994" style="fill:white;"/>
                </g>
            </g>
            <g transform="matrix(1,0,0,1,3.92796,42.6412)">
                <g transform="matrix(0.122102,-1.04074e-34,0,0.443301,1746.82,197.616)">
                    <rect x="3289.62" y="164.253" width="180.178" height="49.246" style="fill:none;"/>
                </g>
                <g transform="matrix(0.982094,0,0,0.982094,-1235.7,-333.822)">
                    <rect x="3450.98" y="620.336" width="1.018" height="0.994" style="fill:white;"/>
                </g>
                <g transform="matrix(0.982094,0,0,0.982094,-1235.7,-322.919)">
                    <rect x="3450.98" y="620.336" width="1.018" height="0.994" style="fill:white;"/>
                </g>
                <g transform="matrix(0.982094,0,0,0.982094,-1224.7,-333.822)">
                    <rect x="3450.98" y="620.336" width="1.018" height="0.994" style="fill:white;"/>
                </g>
                <g transform="matrix(0.982094,0,0,0.982094,-1224.7,-322.919)">
                    <rect x="3450.98" y="620.336" width="1.018" height="0.994" style="fill:white;"/>
                </g>
            </g>
            <g transform="matrix(1,0,0,1,25.928,-1.02075)">
                <g transform="matrix(0.122102,-1.04074e-34,0,0.443301,1746.82,197.616)">
                    <rect x="3289.62" y="164.253" width="180.178" height="49.246" style="fill:none;"/>
                </g>
                <g transform="matrix(0.982094,0,0,0.982094,-1235.7,-333.822)">
                    <rect x="3450.98" y="620.336" width="1.018" height="0.994" style="fill:white;"/>
                </g>
                <g transform="matrix(0.982094,0,0,0.982094,-1235.7,-322.919)">
                    <rect x="3450.98" y="620.336" width="1.018" height="0.994" style="fill:white;"/>
                </g>
                <g transform="matrix(0.982094,0,0,0.982094,-1224.7,-333.822)">
                    <rect x="3450.98" y="620.336" width="1.018" height="0.994" style="fill:white;"/>
                </g>
                <g transform="matrix(0.982094,0,0,0.982094,-1224.7,-322.919)">
                    <rect x="3450.98" y="620.336" width="1.018" height="0.994" style="fill:white;"/>
                </g>
            </g>
            <g transform="matrix(1,0,0,1,25.928,20.8102)">
                <g transform="matrix(0.122102,-1.04074e-34,0,0.443301,1746.82,197.616)">
                    <rect x="3289.62" y="164.253" width="180.178" height="49.246" style="fill:none;"/>
                </g>
                <g transform="matrix(0.982094,0,0,0.982094,-1235.7,-333.822)">
                    <rect x="3450.98" y="620.336" width="1.018" height="0.994" style="fill:white;"/>
                </g>
                <g transform="matrix(0.982094,0,0,0.982094,-1235.7,-322.919)">
                    <rect x="3450.98" y="620.336" width="1.018" height="0.994" style="fill:white;"/>
                </g>
                <g transform="matrix(0.982094,0,0,0.982094,-1224.7,-333.822)">
                    <rect x="3450.98" y="620.336" width="1.018" height="0.994" style="fill:white;"/>
                </g>
                <g transform="matrix(0.982094,0,0,0.982094,-1224.7,-322.919)">
                    <rect x="3450.98" y="620.336" width="1.018" height="0.994" style="fill:white;"/>
                </g>
            </g>
            <g transform="matrix(1,0,0,1,25.928,42.6412)">
                <g transform="matrix(0.122102,-1.04074e-34,0,0.443301,1746.82,197.616)">
                    <rect x="3289.62" y="164.253" width="180.178" height="49.246" style="fill:none;"/>
                </g>
                <g transform="matrix(0.982094,0,0,0.982094,-1235.7,-333.822)">
                    <rect x="3450.98" y="620.336" width="1.018" height="0.994" style="fill:white;"/>
                </g>
                <g transform="matrix(0.982094,0,0,0.982094,-1235.7,-322.919)">
                    <rect x="3450.98" y="620.336" width="1.018" height="0.994" style="fill:white;"/>
                </g>
                <g transform="matrix(0.982094,0,0,0.982094,-1224.7,-333.822)">
                    <rect x="3450.98" y="620.336" width="1.018" height="0.994" style="fill:white;"/>
                </g>
                <g transform="matrix(0.982094,0,0,0.982094,-1224.7,-322.919)">
                    <rect x="3450.98" y="620.336" width="1.018" height="0.994" style="fill:white;"/>
                </g>
            </g>
            <g transform="matrix(1,0,0,1,47.928,-1.02075)">
                <g transform="matrix(0.122102,-1.04074e-34,0,0.443301,1746.82,197.616)">
                    <rect x="3289.62" y="164.253" width="180.178" height="49.246" style="fill:none;"/>
                </g>
                <g transform="matrix(0.982094,0,0,0.982094,-1235.7,-333.822)">
                    <rect x="3450.98" y="620.336" width="1.018" height="0.994" style="fill:white;"/>
                </g>
                <g transform="matrix(0.982094,0,0,0.982094,-1235.7,-322.919)">
                    <rect x="3450.98" y="620.336" width="1.018" height="0.994" style="fill:white;"/>
                </g>
                <g transform="matrix(0.982094,0,0,0.982094,-1224.7,-333.822)">
                    <rect x="3450.98" y="620.336" width="1.018" height="0.994" style="fill:white;"/>
                </g>
                <g transform="matrix(0.982094,0,0,0.982094,-1224.7,-322.919)">
                    <rect x="3450.98" y="620.336" width="1.018" height="0.994" style="fill:white;"/>
                </g>
            </g>
            <g transform="matrix(1,0,0,1,47.928,20.8102)">
                <g transform="matrix(0.122102,-1.04074e-34,0,0.443301,1746.82,197.616)">
                    <rect x="3289.62" y="164.253" width="180.178" height="49.246" style="fill:none;"/>
                </g>
                <g transform="matrix(0.982094,0,0,0.982094,-1235.7,-333.822)">
                    <rect x="3450.98" y="620.336" width="1.018" height="0.994" style="fill:white;"/>
                </g>
                <g transform="matrix(0.982094,0,0,0.982094,-1235.7,-322.919)">
                    <rect x="3450.98" y="620.336" width="1.018" height="0.994" style="fill:white;"/>
                </g>
                <g transform="matrix(0.982094,0,0,0.982094,-1224.7,-333.822)">
                    <rect x="3450.98" y="620.336" width="1.018" height="0.994" style="fill:white;"/>
                </g>
                <g transform="matrix(0.982094,0,0,0.982094,-1224.7,-322.919)">
                    <rect x="3450.98" y="620.336" width="1.018" height="0.994" style="fill:white;"/>
                </g>
            </g>
            <g transform="matrix(1,0,0,1,47.928,42.6412)">
                <g transform="matrix(0.122102,-1.04074e-34,0,0.443301,1746.82,197.616)">
                    <rect x="3289.62" y="164.253" width="180.178" height="49.246" style="fill:none;"/>
                </g>
                <g transform="matrix(0.982094,0,0,0.982094,-1235.7,-333.822)">
                    <rect x="3450.98" y="620.336" width="1.018" height="0.994" style="fill:white;"/>
                </g>
                <g transform="matrix(0.982094,0,0,0.982094,-1235.7,-322.919)">
                    <rect x="3450.98" y="620.336" width="1.018" height="0.994" style="fill:white;"/>
                </g>
                <g transform="matrix(0.982094,0,0,0.982094,-1224.7,-333.822)">
                    <rect x="3450.98" y="620.336" width="1.018" height="0.994" style="fill:white;"/>
                </g>
                <g transform="matrix(0.982094,0,0,0.982094,-1224.7,-322.919)">
                    <rect x="3450.98" y="620.336" width="1.018" height="0.994" style="fill:white;"/>
                </g>
            </g>
        </g>
    </g>
</svg>
